<svg width="202" height="90" viewBox="0 0 202 90" fill="none" xmlns="http://www.w3.org/2000/svg">
<path fill-rule="evenodd" clip-rule="evenodd" d="M46.1441 84.7423C46.8222 84.885 49.0096 86.5085 49.3853 86.8098C50.3883 87.6093 51.345 88.4647 52.2509 89.3719C52.4865 89.3116 53.0564 88.7916 53.4576 88.4967C52.7667 87.5264 49.4267 85.4272 48.2264 84.8564C47.8887 84.6658 47.54 84.4953 47.182 84.3459C48.739 84.1239 49.2611 84.2825 51.0028 85.3226C54.3714 87.3425 58.8926 88.8106 62.1816 85.9568L63.2164 84.9198C56.9886 88.0211 53.1201 82.6811 47.2966 83.6515C46.9153 83.7147 46.5425 83.8211 46.1855 83.9686C45.8272 83.8214 45.4533 83.715 45.0711 83.6515C39.2349 82.7002 35.3664 88.0274 29.1514 84.9198L30.183 85.9568C33.4752 88.8106 37.9932 87.3488 41.3618 85.3226C43.097 84.2825 43.616 84.1239 45.1825 84.3459C44.8242 84.4946 44.4755 84.6651 44.1382 84.8564C42.9347 85.4272 39.5979 87.5264 38.907 88.4967C39.305 88.7916 39.8622 89.3116 40.1137 89.3719C41.0196 88.4647 41.9763 87.6093 42.9792 86.8098C43.2849 86.5085 45.4659 84.885 46.1441 84.7423Z" fill="#BB9345"/>
<path fill-rule="evenodd" clip-rule="evenodd" d="M57.6034 7.0979L57.6608 7.12326L57.7117 7.14546C57.8479 7.2137 58.0052 7.22731 58.1511 7.18351C58.2756 7.11489 58.369 7.00144 58.4122 6.86642C58.4432 6.80597 58.4609 6.73965 58.4642 6.67186C58.4675 6.60407 58.4563 6.53636 58.4313 6.47322C58.3457 6.34925 58.2197 6.25852 58.0747 6.21636L58.0206 6.20051L57.96 6.17831L57.6034 7.11058V7.0979ZM55.8555 9.00049L57.3296 5.19531L58.3358 5.579C58.5791 5.66431 58.8145 5.77041 59.0394 5.8961C59.1667 5.96964 59.2725 6.07506 59.3462 6.20188C59.4199 6.32871 59.459 6.47253 59.4597 6.61908C59.4496 6.99568 59.2972 7.35463 59.033 7.62427C58.8897 7.7451 58.7156 7.82411 58.53 7.85259C58.7624 8.0809 58.7942 8.42654 58.635 8.8895C58.6181 8.93812 58.5926 9.00789 58.5586 9.09879C58.4026 9.53004 58.3676 9.82811 58.4631 9.98666L57.4156 9.58711C57.4229 9.49619 57.4379 9.40604 57.4602 9.31759C57.4844 9.22084 57.5142 9.12555 57.5493 9.03219C57.5748 8.97194 57.6034 8.89901 57.6417 8.81339L57.7117 8.64533C57.79 8.48602 57.8219 8.30809 57.804 8.13163C57.7812 8.06974 57.7438 8.01417 57.6951 7.9695C57.6464 7.92484 57.5877 7.89237 57.5239 7.87478L57.3392 7.80502L56.7502 9.33344L55.8618 8.99414L55.8555 9.00049ZM58.8261 10.1706L60.8352 11.1441L61.2013 10.3989L60.0519 9.8408L60.4435 9.03536L61.507 9.55224L61.8668 8.81657L60.8065 8.29969L61.1249 7.62427L62.2743 8.18237L62.6245 7.4689L60.6155 6.49224L58.8134 10.1706H58.8261ZM62.0101 10.1547L62.7583 10.6209L62.6946 10.7192C62.5973 10.8509 62.5339 11.0044 62.5099 11.1663C62.5085 11.2195 62.522 11.272 62.5491 11.318C62.5761 11.3639 62.6154 11.4015 62.6627 11.4263C62.7006 11.4518 62.7439 11.4682 62.7892 11.4742C62.8345 11.4803 62.8806 11.4758 62.9238 11.4612C63.0204 11.4264 63.1008 11.3576 63.1499 11.2677C63.2008 11.1533 63.2219 11.028 63.2113 10.9033C63.2008 10.7786 63.1588 10.6586 63.0894 10.5543C63.0671 10.5035 63.048 10.4655 63.0353 10.4401L63.013 10.3894C62.8711 10.1136 62.7703 9.81883 62.7137 9.51419C62.7109 9.39092 62.727 9.26795 62.7615 9.14951C62.8006 9.01728 62.8585 8.89129 62.9334 8.77534C63.0078 8.64041 63.1092 8.52212 63.2313 8.42776C63.3534 8.3334 63.4937 8.265 63.6434 8.22677C63.7975 8.19835 63.9556 8.20082 64.1087 8.23404C64.2618 8.26725 64.4067 8.33053 64.5349 8.42019C64.8271 8.57674 65.0465 8.84069 65.1462 9.15586C65.1772 9.31142 65.1757 9.47167 65.1417 9.62661C65.1078 9.78156 65.0421 9.92787 64.9488 10.0564L64.9106 10.1135L64.8724 10.1674L64.1433 9.71396L64.1687 9.66956C64.2513 9.55592 64.3019 9.42236 64.3152 9.2827C64.3191 9.23305 64.3085 9.18334 64.2848 9.1395C64.2611 9.09565 64.2252 9.05951 64.1815 9.03536C64.1474 9.01225 64.1085 8.99711 64.0677 8.99107C64.0269 8.98503 63.9852 8.98825 63.9459 9.00049C63.8575 9.03094 63.7837 9.09313 63.7389 9.17489C63.6466 9.32075 63.6816 9.56175 63.844 9.89153C63.8695 9.95178 63.8917 9.99935 63.9077 10.0311C63.9236 10.0628 63.9395 10.0945 63.9618 10.1452C64.0987 10.3916 64.1873 10.6617 64.2229 10.9411C64.2215 11.0575 64.2021 11.173 64.1655 11.2836C64.1263 11.4077 64.0707 11.5261 64 11.6356C63.8352 11.9395 63.5575 12.1671 63.2263 12.2698C63.0617 12.3037 62.8917 12.3032 62.7273 12.2683C62.5629 12.2333 62.4075 12.1647 62.2711 12.0668C62.1191 11.989 61.9844 11.8815 61.875 11.7508C61.7656 11.62 61.6838 11.4687 61.6343 11.3058C61.6077 11.1371 61.6148 10.9648 61.6553 10.7988C61.6957 10.6328 61.7687 10.4764 61.8699 10.3386L61.9145 10.2689C61.9304 10.2435 61.9591 10.2055 61.9973 10.1547H62.0101ZM63.7994 12.9357L65.6302 14.2041L66.1078 13.5223L65.0603 12.793L65.5761 12.0605L66.5312 12.7359L67.0025 12.0636L66.0473 11.3882L66.4803 10.7731L67.5278 11.5056L67.9863 10.8523L66.1555 9.58395L63.7994 12.9357ZM67.7284 14.0487L69.0943 12.8564L68.1391 14.4007L67.7157 14.0487H67.7284ZM65.8371 14.4546L69.1644 11.8956L70.0399 12.6249L68.0786 16.3254L67.34 15.7103L67.7539 15.0317L67.1776 14.5497L66.5726 15.0602L65.8308 14.4419L65.8371 14.4546ZM70.7436 15.7388L70.7818 15.7895L70.82 15.8339C70.9102 15.9553 71.0434 16.0381 71.1925 16.0654C71.265 16.0632 71.3362 16.0462 71.4019 16.0157C71.4675 15.9852 71.5263 15.9417 71.5746 15.8878C71.6302 15.8482 71.6766 15.7971 71.7107 15.738C71.7447 15.6789 71.7656 15.6132 71.772 15.5454C71.7531 15.3969 71.682 15.2599 71.5714 15.1585L71.53 15.1173L71.4855 15.0729L70.7436 15.7388ZM68.327 16.6362L68.9638 17.337L70.1864 16.243L70.3169 16.3889C70.3665 16.4329 70.4048 16.4881 70.4286 16.5499C70.4524 16.6117 70.4611 16.6782 70.4538 16.744C70.3873 16.9086 70.2773 17.0521 70.1354 17.1594C70.1132 17.1784 70.0686 17.2197 69.9954 17.2767L69.8139 17.4321C69.7399 17.4989 69.6697 17.5698 69.6037 17.6446C69.5448 17.7149 69.4905 17.7891 69.4414 17.8665L70.1928 18.6973C70.1928 18.5103 70.3456 18.2597 70.6863 17.9458L70.8487 17.7936C71.201 17.4554 71.3284 17.1319 71.2307 16.8233C71.4085 16.8825 71.5995 16.8902 71.7816 16.8455C72.1415 16.7273 72.4415 16.475 72.6189 16.1415C72.6855 16.0114 72.7164 15.866 72.7086 15.7202C72.7008 15.5743 72.6545 15.4331 72.5743 15.3107C72.4334 15.0953 72.2725 14.8936 72.0936 14.7083L71.3708 13.9092L68.3206 16.6457L68.327 16.6362ZM72.7367 19.4203L73.2907 20.1814L73.2303 20.2321L73.1252 20.3082C72.8203 20.567 72.4304 20.7048 72.0299 20.6951C71.8475 20.6639 71.6739 20.5944 71.5207 20.491C71.3675 20.3876 71.2382 20.2529 71.1416 20.0957C70.9982 19.908 70.8972 19.6917 70.8455 19.4615C70.8072 19.2583 70.8271 19.0484 70.9028 18.8559C70.9767 18.6847 71.085 18.5303 71.2212 18.4024C71.4855 18.1561 71.7675 17.9293 72.0649 17.7238C72.3528 17.5058 72.6561 17.3087 72.9723 17.134C73.1371 17.0414 73.3191 16.9832 73.5073 16.9628C73.7134 16.9504 73.9187 16.9966 74.0995 17.096C74.3012 17.2102 74.4743 17.3685 74.6057 17.559C74.7261 17.7008 74.8143 17.8669 74.8643 18.0459C74.9143 18.2249 74.9249 18.4124 74.8955 18.5959C74.7827 18.9809 74.531 19.3107 74.1886 19.5218L74.1536 19.5472L73.6091 18.7925C73.7784 18.684 73.9218 18.5401 74.0294 18.3707C74.056 18.3155 74.0659 18.2537 74.058 18.1929C74.0501 18.1321 74.0247 18.0749 73.9849 18.0283C73.9484 17.9708 73.8943 17.9266 73.8307 17.902C73.7671 17.8775 73.6972 17.8739 73.6314 17.8919C73.2957 18.0387 72.9818 18.2308 72.6985 18.4627L72.6381 18.5071C72.3075 18.7168 72.0066 18.9695 71.7433 19.2586C71.7013 19.3138 71.6785 19.3812 71.6785 19.4504C71.6785 19.5197 71.7013 19.5871 71.7433 19.6423C71.7754 19.6961 71.8228 19.7393 71.8794 19.7664C71.9361 19.7935 71.9995 19.8033 72.0617 19.7945C72.2536 19.7442 72.432 19.6521 72.5839 19.525L72.7304 19.4171L72.7367 19.4203ZM72.3292 21.6781L72.8227 22.4962L74.2841 21.6242L74.6789 22.2805L73.2207 23.1557L73.7047 23.958L77.2229 21.8493L76.739 21.0502L75.4113 21.8461L75.0133 21.1866L76.3441 20.3906L75.8475 19.5694L72.3451 21.6781H72.3292ZM73.9944 24.5319L77.7164 22.8038L78.6716 24.8205L77.9488 25.1566L77.4076 24.0024L76.723 24.3195L77.2229 25.3849L76.4779 25.7306L75.978 24.6651L75.1661 25.0425L75.7042 26.1967L74.9496 26.5487L73.9944 24.5319ZM77.7355 27.2273L77.7546 27.2843C77.7546 27.3097 77.7546 27.3287 77.7738 27.3414C77.8113 27.4881 77.9035 27.6151 78.0316 27.6966C78.0997 27.7208 78.1718 27.7314 78.244 27.7276C78.3162 27.7237 78.3869 27.7057 78.4519 27.6744C78.5195 27.6588 78.5828 27.6289 78.6378 27.5868C78.6927 27.5446 78.7379 27.4913 78.7703 27.4302C78.8086 27.2851 78.7939 27.1312 78.7289 26.9958C78.7289 26.9958 78.7289 26.9673 78.7066 26.9419C78.6975 26.9236 78.6901 26.9045 78.6844 26.8848L77.7292 27.2273H77.7355ZM75.1597 27.1543L75.4781 28.0422L77.0223 27.4841L77.0892 27.668C77.1199 27.7268 77.1359 27.7921 77.1359 27.8583C77.1359 27.9245 77.1199 27.9898 77.0892 28.0486C76.9673 28.1772 76.8118 28.2694 76.6402 28.3149L76.4651 28.372L76.2391 28.4481C76.1404 28.4862 76.048 28.5242 75.9621 28.5654C75.8812 28.6084 75.8035 28.6572 75.7296 28.7113L76.1149 29.7609C76.1754 29.5833 76.4333 29.4153 76.8536 29.2504L77.0605 29.1679C77.519 28.984 77.7578 28.7303 77.7801 28.4101C77.9232 28.5307 78.0976 28.6088 78.2832 28.6352C78.4877 28.6539 78.6938 28.6245 78.8849 28.5496C79.0471 28.4933 79.1972 28.4073 79.3275 28.2959C79.4376 28.1952 79.5207 28.0688 79.5695 27.9281C79.6127 27.7917 79.6214 27.6468 79.595 27.5063C79.546 27.2549 79.4735 27.0086 79.3784 26.7707L79.0091 25.7591L75.1501 27.1575L75.1597 27.1543ZM77.4617 29.6911L77.675 30.541L77.5604 30.5695C77.3985 30.5977 77.2456 30.664 77.1147 30.7629C77.0769 30.8003 77.0504 30.8474 77.038 30.8989C77.0257 30.9504 77.028 31.0043 77.0446 31.0546C77.0539 31.0991 77.0734 31.1409 77.1016 31.1767C77.1297 31.2124 77.1658 31.2412 77.207 31.2608C77.3012 31.3034 77.4081 31.3091 77.5063 31.2766C77.6973 31.2291 77.8502 31.0451 77.9584 30.7249L78.003 30.6044L78.0189 30.5536C78.1095 30.2572 78.2425 29.9752 78.4137 29.7165C78.498 29.6253 78.5957 29.5472 78.7034 29.485C78.8232 29.4178 78.9518 29.3676 79.0855 29.336C79.2335 29.2905 79.3892 29.2757 79.5431 29.2926C79.697 29.3095 79.8458 29.3577 79.9802 29.4343C80.1112 29.5198 80.2235 29.6306 80.3105 29.7603C80.3975 29.89 80.4573 30.0358 80.4864 30.189C80.5893 30.5032 80.563 30.8453 80.4132 31.1403C80.3275 31.2744 80.2147 31.3893 80.0821 31.4777C79.9495 31.5661 79.7999 31.6261 79.6427 31.654H79.579H79.5122L79.3052 30.8232H79.353C79.4919 30.7967 79.6215 30.7344 79.7287 30.6424C79.7653 30.609 79.7918 30.5661 79.8053 30.5185C79.8188 30.4709 79.8188 30.4204 79.8051 30.3729C79.7958 30.333 79.7779 30.2956 79.7526 30.2633C79.7273 30.231 79.6952 30.2045 79.6586 30.1858C79.5737 30.147 79.4775 30.1402 79.388 30.1668C79.2192 30.2112 79.0696 30.4046 78.9645 30.7566C78.9423 30.82 78.9231 30.8676 78.9104 30.9024C78.9002 30.9423 78.8875 30.9815 78.8722 31.0198C78.7994 31.2913 78.6751 31.5464 78.506 31.7713C78.4241 31.8551 78.3296 31.9257 78.2258 31.9806C78.1098 32.0414 77.9869 32.0882 77.8597 32.1201C77.6958 32.1725 77.5231 32.1922 77.3516 32.1781C77.18 32.1639 77.013 32.1162 76.86 32.0376C76.718 31.9491 76.5963 31.832 76.5025 31.6939C76.4087 31.5557 76.345 31.3995 76.3155 31.2354C76.2616 31.0745 76.2411 30.9044 76.2554 30.7354C76.2696 30.5664 76.3182 30.4021 76.3983 30.2524C76.4959 30.1121 76.621 29.9929 76.7659 29.9019C76.9109 29.8109 77.0728 29.75 77.242 29.7228L77.3248 29.7006L77.4617 29.6911Z" fill="#00878D"/>
<path fill-rule="evenodd" clip-rule="evenodd" d="M14.4769 31.0354L14.6106 30.5027L12.8022 30.3346L14.4769 31.0354ZM15.6709 32.5511L11.9043 30.6961L12.1781 29.5926L16.3777 29.7258L16.1453 30.6549L15.3525 30.5788L15.171 31.3081L15.9065 31.6252L15.6709 32.5765V32.5511ZM14.5215 27.6646L14.5438 27.6044C14.5536 27.5875 14.5611 27.5694 14.5661 27.5505C14.6285 27.4128 14.6376 27.2569 14.5915 27.1129C14.5134 26.9892 14.3901 26.9006 14.2477 26.8656C14.1856 26.8377 14.1183 26.8233 14.0503 26.8233C13.9822 26.8233 13.9149 26.8377 13.8529 26.8656C13.732 26.9539 13.6463 27.0819 13.6109 27.227C13.6043 27.2446 13.5989 27.2626 13.5949 27.281C13.59 27.3014 13.5836 27.3216 13.5759 27.3412L14.531 27.6583L14.5215 27.6646ZM16.4796 29.3358L12.5952 28.0039L12.9486 26.986C13.0255 26.7409 13.1247 26.5031 13.2447 26.2758C13.3127 26.1483 13.4111 26.0394 13.5313 25.9587C13.6592 25.88 13.8047 25.8343 13.9547 25.8255C14.1262 25.8198 14.2971 25.8479 14.4578 25.9079C14.654 25.9703 14.8321 26.0791 14.9768 26.225C15.1044 26.3623 15.1905 26.5327 15.2251 26.7165C15.448 26.4787 15.7919 26.4343 16.2631 26.577C16.314 26.577 16.3841 26.6119 16.4764 26.6436C16.9158 26.7873 17.2151 26.8095 17.3743 26.7102L17.0081 27.7661C16.9171 27.7621 16.8266 27.7504 16.7375 27.7312C16.6393 27.711 16.5425 27.6845 16.4477 27.652L16.2249 27.5695L16.0529 27.5029C15.8902 27.4309 15.7104 27.4056 15.534 27.43C15.4724 27.4542 15.4177 27.4932 15.375 27.5436C15.3322 27.5939 15.3026 27.654 15.2888 27.7186L15.2219 27.9056L16.7757 28.4384L16.4573 29.3326L16.4796 29.3358ZM17.5844 26.355L17.9888 25.4894L14.2668 23.7612L13.8592 24.6268L17.5844 26.355ZM18.2435 24.8964L14.617 22.9748L15.0659 22.1313L16.4382 22.8574L16.798 22.1788L15.4289 21.4527L15.8683 20.6251L19.4948 22.5467L19.0554 23.3711L17.5399 22.5752L17.1801 23.2538L18.6829 24.0497L18.234 24.8964H18.2435ZM19.1573 20.3143L19.4757 19.8704L17.8646 19.0427L19.1382 20.3111L19.1573 20.3143ZM19.6954 22.1662L20.2653 21.3861L19.6986 20.828L20.1412 20.2192L20.8512 20.5838L21.4147 19.8101L17.5717 18.12L16.8999 19.0396L19.6954 22.1662ZM21.5357 19.5025L18.4823 16.766L19.151 16.024L21.5707 17.1211C21.2301 16.8611 20.934 16.6328 20.7015 16.4394C20.4691 16.2459 20.2621 16.0747 20.1029 15.932L19.6222 15.5039L20.1953 14.8697L23.2487 17.6063L22.5768 18.3483L20.0998 17.2036C20.3768 17.4034 20.6378 17.6031 20.8894 17.8029C21.1409 18.0027 21.3733 18.1993 21.5962 18.399L22.112 18.862L21.5357 19.4962V19.5025ZM24.0638 16.7343L24.7674 16.0779L22.51 13.6679L23.1022 13.1194L22.5578 12.5391L20.6983 14.2641L21.2428 14.8444L21.8063 14.3212L24.0638 16.7343Z" fill="#97183B"/>
<path fill-rule="evenodd" clip-rule="evenodd" d="M26.5156 14.4892L24.0449 11.2231L24.8441 10.6238L27.006 12.1585C26.7226 11.8414 26.4838 11.5624 26.2832 11.3246C26.0826 11.0867 25.9234 10.8838 25.7961 10.7157L25.4076 10.202L26.089 9.68833L28.5629 12.9544L27.7606 13.5569L25.5477 11.9714C25.7802 12.2188 25.9998 12.4661 26.2068 12.7071C26.4137 12.9481 26.608 13.1891 26.7895 13.4301L27.2066 13.9818L26.5156 14.4987V14.4892ZM29.0628 10.8489L29.5308 10.5572L28.3464 9.18732L29.0628 10.8489ZM28.8654 12.7515L29.6869 12.2378L29.3685 11.5116L30.0053 11.1121L30.5242 11.7146L31.3393 11.2072L28.4101 8.20431L27.4549 8.8068L28.8717 12.7515H28.8654ZM32.0048 10.925L30.5019 7.98551L29.8174 8.33432L29.4544 7.62719L31.7182 6.4793L32.078 7.18643L31.3584 7.55109L32.8612 10.4874L32.0048 10.925ZM32.4919 6.16854L33.2815 8.22334C33.3953 8.53708 33.5293 8.84318 33.6827 9.13975C33.7645 9.28957 33.8723 9.42377 34.0011 9.53612C34.1494 9.66065 34.3331 9.73603 34.5264 9.75175C34.7547 9.75616 34.9814 9.71295 35.1919 9.62491C35.4296 9.54616 35.647 9.41625 35.8287 9.24439C35.9708 9.10204 36.0586 8.91476 36.077 8.71484C36.0951 8.58175 36.0898 8.44654 36.0611 8.3153C36.0095 8.09905 35.9414 7.88703 35.8573 7.6811L34.9022 5.24262L34.0138 5.58191L34.934 7.976C35.0384 8.19329 35.1031 8.42737 35.125 8.66727C35.1188 8.71965 35.0974 8.7691 35.0635 8.80962C35.0296 8.85015 34.9846 8.88001 34.934 8.89558C34.8869 8.91901 34.8339 8.92791 34.7817 8.92113C34.7295 8.91435 34.6805 8.89221 34.641 8.85753C34.4978 8.66673 34.39 8.45195 34.3227 8.22334L33.3993 5.82925L32.4951 6.17489L32.4919 6.16854ZM37.306 6.32709H37.3697H37.4238C37.5743 6.30283 37.7098 6.22231 37.8027 6.10195C37.8334 6.03623 37.8506 5.96509 37.8533 5.89268C37.856 5.82026 37.8442 5.74804 37.8186 5.68022C37.8062 5.61542 37.7807 5.55384 37.7434 5.49929C37.7062 5.44475 37.6581 5.39841 37.6021 5.36312C37.4603 5.3112 37.3046 5.3112 37.1627 5.36312L37.1086 5.38214L37.0481 5.40117L37.306 6.35246V6.32709ZM37.0099 8.87973L35.9465 4.92869L36.9908 4.64965C37.2382 4.57582 37.4918 4.52486 37.7486 4.49744C37.8948 4.48234 38.0424 4.50538 38.1769 4.56431C38.3115 4.62325 38.4283 4.71604 38.5159 4.83356C38.6144 4.97269 38.6867 5.12848 38.7293 5.29336C38.7878 5.4899 38.7987 5.69745 38.7611 5.899C38.7188 6.08044 38.6261 6.24637 38.4937 6.37783C38.812 6.42856 39.0444 6.69492 39.1877 7.15788C39.1877 7.20545 39.2227 7.27839 39.2514 7.37034C39.3787 7.81428 39.5252 8.07431 39.6972 8.14724L38.6146 8.43896C38.5663 8.36125 38.5248 8.27957 38.4905 8.1948C38.4534 8.10149 38.4215 8.00622 38.3949 7.90941C38.3949 7.84599 38.3599 7.76989 38.3408 7.6811C38.3217 7.59232 38.3058 7.5289 38.2962 7.50353C38.2667 7.32808 38.1884 7.16439 38.0702 7.03105C38.0149 6.99444 37.9517 6.97159 37.8858 6.96442C37.8198 6.95725 37.7531 6.96596 37.6913 6.98982L37.5002 7.04056L37.9237 8.62605L37.0067 8.87022L37.0099 8.87973ZM40.7224 6.43808L41.2637 6.34295L40.681 4.63379L40.7224 6.43808ZM39.8181 8.14406L39.9869 3.95837L41.1108 3.76177L42.7028 7.6367L41.7476 7.80477L41.4929 7.05007L40.7479 7.18326L40.767 7.976L39.8118 8.14406H39.8181ZM45.1704 7.54474L43.0626 7.69062L42.776 3.60957L43.7312 3.54297L43.9573 6.79957L45.1099 6.7203L45.1704 7.54474Z" fill="#226C2C"/>
<path fill-rule="evenodd" clip-rule="evenodd" d="M47.8991 5.07175H47.9596C48.1065 5.09491 48.2569 5.06452 48.3831 4.98613C48.4344 4.94152 48.4754 4.88641 48.5034 4.82458C48.5314 4.76275 48.5458 4.69565 48.5454 4.62781C48.5529 4.56658 48.5468 4.50447 48.5276 4.44584C48.5083 4.38722 48.4764 4.33351 48.434 4.28851C48.3315 4.19766 48.1987 4.14794 48.0615 4.14899H47.966L47.8991 5.07175ZM47.7749 6.83798H47.8577C48.0198 6.86258 48.1852 6.82396 48.3194 6.73017C48.3771 6.67876 48.4232 6.61568 48.4545 6.54514C48.4857 6.4746 48.5016 6.39823 48.5009 6.32111C48.5111 6.25098 48.5052 6.17946 48.4837 6.11191C48.4622 6.04436 48.4256 5.98254 48.3767 5.93108C48.2445 5.8299 48.0818 5.77626 47.915 5.77888H47.8481L47.7749 6.84115V6.83798ZM46.7656 7.49121L47.0521 3.41016L48.0806 3.48308C48.3065 3.49144 48.5312 3.51902 48.7524 3.56553C48.8742 3.59382 48.9897 3.64435 49.0931 3.71457C49.2332 3.80612 49.3438 3.93605 49.4115 4.08874C49.4775 4.25372 49.5037 4.43187 49.4879 4.60879C49.4787 4.77299 49.4307 4.93271 49.3478 5.07492C49.2529 5.22324 49.1295 5.35146 48.9848 5.45227C49.1501 5.54747 49.2839 5.6885 49.3701 5.85815C49.4539 6.03835 49.488 6.23757 49.4688 6.43526C49.4567 6.61191 49.4124 6.7849 49.3382 6.9458C49.2713 7.09706 49.1725 7.23223 49.0485 7.34217C48.9329 7.44737 48.7911 7.51966 48.6378 7.55145C48.3977 7.58935 48.1536 7.59574 47.9118 7.57048L46.772 7.49121H46.7656ZM49.9304 7.77977L50.4335 3.72091L51.3887 3.83823L50.8888 7.89709L49.9336 7.77977H49.9304ZM53.5761 6.72066L53.7416 6.00401C53.8266 5.73238 53.8622 5.44781 53.8467 5.16371C53.8291 5.10425 53.7944 5.05124 53.7469 5.01123C53.6993 4.97121 53.641 4.94595 53.5792 4.93856C53.5201 4.91939 53.4566 4.91789 53.3967 4.93424C53.3367 4.95058 53.2828 4.98405 53.2418 5.03052C53.106 5.27823 53.0144 5.54754 52.9711 5.82644L52.8024 6.54309C52.719 6.81176 52.6845 7.09311 52.7005 7.37388C52.7163 7.43465 52.7498 7.48939 52.7968 7.53116C52.8439 7.57293 52.9023 7.59986 52.9648 7.60853C53.0239 7.6277 53.0873 7.62921 53.1473 7.61286C53.2073 7.59652 53.2611 7.56304 53.3022 7.51657C53.4417 7.27021 53.5345 7.00043 53.5761 6.72066ZM51.9332 5.96596C52.0081 5.61299 52.107 5.2655 52.2292 4.92588C52.2923 4.74934 52.3909 4.58749 52.519 4.45024C52.667 4.30315 52.8553 4.20277 53.0603 4.16168C53.2917 4.11868 53.5299 4.12734 53.7575 4.18704C53.9877 4.23276 54.205 4.32799 54.3943 4.46609C54.556 4.59578 54.6792 4.76675 54.7509 4.96076C54.8078 5.1421 54.8262 5.33323 54.8051 5.52203C54.7119 6.23459 54.5498 6.93652 54.3211 7.61804C54.2575 7.79745 54.1554 7.96086 54.0218 8.09686C53.8759 8.24332 53.6898 8.34369 53.4869 8.38542C53.2557 8.42946 53.0175 8.42188 52.7896 8.36322C52.5597 8.31522 52.3426 8.21901 52.1528 8.081C51.9884 7.95323 51.8637 7.78173 51.793 7.58633C51.7388 7.40556 51.7215 7.2158 51.7421 7.02824C51.7778 6.66599 51.8395 6.30674 51.9268 5.95328L51.9332 5.96596Z" fill="#006A94"/>
<path fill-rule="evenodd" clip-rule="evenodd" d="M13.3627 36.6229C13.1883 36.6442 13.0114 36.6311 12.8422 36.5842C12.6729 36.5374 12.5146 36.4579 12.3762 36.3501C12.2378 36.2423 12.1221 36.1084 12.0357 35.9561C11.9493 35.8038 11.8938 35.636 11.8726 35.4623C11.8333 35.1131 11.9343 34.7626 12.1534 34.4872C12.3725 34.2118 12.692 34.0337 13.0423 33.9919C13.3926 33.9501 13.7454 34.0478 14.0237 34.2638C14.3019 34.4799 14.4832 34.7967 14.528 35.1452C14.5494 35.3189 14.5362 35.495 14.4892 35.6636C14.4422 35.8322 14.3622 35.9899 14.254 36.1277C14.1458 36.2655 14.0114 36.3807 13.8584 36.4668C13.7055 36.5529 13.537 36.6081 13.3627 36.6293V36.6229Z" fill="#005D80"/>
<path fill-rule="evenodd" clip-rule="evenodd" d="M55.7152 69.2458C55.7751 69.5489 55.7275 69.8633 55.5807 70.1354C55.4338 70.4076 55.1968 70.6205 54.9099 70.7381C54.6231 70.8556 54.3041 70.8704 54.0075 70.7799C53.7109 70.6895 53.455 70.4994 53.2834 70.242C53.1118 69.9847 53.0351 69.676 53.0664 69.3687C53.0977 69.0613 53.2351 68.7743 53.4551 68.5566C53.6751 68.3388 53.9642 68.2038 54.273 68.1745C54.5817 68.1452 54.8912 68.2235 55.1485 68.396C55.2961 68.4917 55.4225 68.6164 55.52 68.7626C55.6174 68.9087 55.6839 69.0732 55.7152 69.2458Z" fill="#005D80"/>
<path fill-rule="evenodd" clip-rule="evenodd" d="M13.1432 38.8965L13.2006 39.6988H13.0923C12.9417 39.6992 12.7934 39.735 12.6593 39.8034C12.6247 39.8314 12.5968 39.8667 12.5777 39.9067C12.5585 39.9467 12.5486 39.9905 12.5486 40.0349C12.5486 40.0793 12.5585 40.1231 12.5777 40.1631C12.5968 40.2032 12.6247 40.2384 12.6593 40.2664C12.7372 40.3204 12.8328 40.3431 12.9268 40.3298C13.1093 40.3171 13.2749 40.1744 13.4234 39.9017L13.4808 39.8003L13.5062 39.7559C13.636 39.5035 13.8011 39.2708 13.9966 39.0646C14.0864 38.9959 14.1862 38.9413 14.2927 38.9029C14.4116 38.8602 14.5359 38.8346 14.662 38.8268C14.803 38.8087 14.9463 38.8199 15.0828 38.8597C15.2192 38.8996 15.3459 38.9672 15.4548 39.0582C15.5587 39.1566 15.6421 39.2745 15.7 39.4051C15.7579 39.5358 15.7893 39.6765 15.7923 39.8193C15.8134 39.9679 15.8048 40.1191 15.7671 40.2644C15.7294 40.4097 15.6633 40.5461 15.5726 40.6659C15.4741 40.7736 15.3541 40.8596 15.2204 40.9186C15.0866 40.9775 14.942 41.0081 14.7957 41.0084H14.6747L14.6174 40.2252H14.6652C14.7953 40.2229 14.9227 40.1868 15.0345 40.1205C15.0723 40.0955 15.1027 40.0608 15.1223 40.0201C15.1419 39.9793 15.1501 39.934 15.146 39.889C15.1444 39.8514 15.1341 39.8146 15.1158 39.7816C15.0976 39.7486 15.072 39.7203 15.0409 39.6988C14.9716 39.6497 14.8865 39.6282 14.8021 39.6385C14.6429 39.6385 14.4837 39.8034 14.3245 40.1015L14.2545 40.2252C14.2545 40.2505 14.2258 40.2822 14.2003 40.3235C14.0907 40.5611 13.9373 40.7762 13.7482 40.9577C13.6595 41.0177 13.5631 41.0657 13.4616 41.1003C13.347 41.1368 13.2283 41.1591 13.1082 41.1669C12.7931 41.2094 12.4738 41.1262 12.2199 40.9355C12.1064 40.8325 12.0155 40.7072 11.953 40.5675C11.8906 40.4277 11.8579 40.2766 11.857 40.1237C11.8349 39.9697 11.844 39.8129 11.8839 39.6626C11.9239 39.5122 11.9937 39.3714 12.0894 39.2485C12.3148 39.0264 12.6193 38.9022 12.9363 38.9029H13.1401L13.1432 38.8965ZM15.8592 41.3001L15.9483 42.1721L13.6018 42.4163C13.3778 42.4233 13.1569 42.4694 12.949 42.5527C12.9101 42.5805 12.88 42.6189 12.8625 42.6634C12.845 42.7078 12.8408 42.7564 12.8504 42.8032C12.8506 42.8516 12.8656 42.8988 12.8935 42.9384C12.9214 42.9781 12.9608 43.0084 13.0064 43.0251C13.2243 43.0643 13.4475 43.0643 13.6654 43.0251L16.012 42.781L16.1043 43.6435L13.7132 43.894C13.5105 43.9198 13.3061 43.9293 13.1019 43.9225C12.9784 43.9159 12.8569 43.8892 12.7421 43.8433C12.5692 43.7787 12.4241 43.6566 12.3314 43.4976C12.2232 43.3023 12.1591 43.0859 12.1435 42.8634C12.1146 42.6563 12.1308 42.4454 12.1913 42.2451C12.2493 42.0775 12.3612 41.9338 12.5096 41.836C12.638 41.746 12.783 41.6824 12.9363 41.6489C13.2355 41.584 13.5386 41.5384 13.8437 41.5126L15.8592 41.3033V41.3001ZM13.7992 44.2301L13.6718 44.2491L13.5986 44.265C13.443 44.2889 13.2937 44.3433 13.1593 44.4249C13.0248 44.5065 12.908 44.6138 12.8153 44.7406C12.7397 44.8762 12.6925 45.0256 12.6767 45.1799C12.6608 45.3341 12.6765 45.49 12.723 45.638C12.7482 45.7894 12.8044 45.934 12.8882 46.0628C12.9721 46.1915 13.0816 46.3017 13.2101 46.3864C13.4916 46.5331 13.8193 46.5649 14.1239 46.4752C14.2426 46.4494 14.3571 46.4078 14.4646 46.3515C14.5589 46.3028 14.6458 46.2408 14.7225 46.1676C14.8813 45.9631 15.0001 45.7308 15.0727 45.4826C15.0727 45.4351 15.1014 45.4002 15.1078 45.3748L15.1587 45.2416C15.2701 44.9245 15.4007 44.747 15.5567 44.7089C15.6393 44.6848 15.7281 44.6927 15.8051 44.7311C15.8383 44.7489 15.8672 44.7737 15.8897 44.8039C15.9123 44.834 15.928 44.8687 15.9356 44.9055C15.947 44.9495 15.9463 44.9957 15.9334 45.0393C15.9205 45.0829 15.8959 45.1221 15.8623 45.1529C15.7619 45.234 15.6426 45.2885 15.5153 45.3114H15.4707L15.6459 46.0756H15.7063H15.7669C15.9114 46.0529 16.0497 46.0006 16.173 45.922C16.2963 45.8434 16.4019 45.7402 16.4832 45.619C16.6244 45.3502 16.653 45.0367 16.5628 44.747C16.5393 44.6065 16.4873 44.4722 16.4102 44.3523C16.333 44.2324 16.2322 44.1293 16.1139 44.0494C15.9919 43.9758 15.8557 43.9285 15.7143 43.9105C15.5728 43.8924 15.4291 43.9041 15.2924 43.9447C15.169 43.9712 15.05 44.0149 14.939 44.0747C14.8402 44.13 14.75 44.1994 14.6716 44.2809C14.5098 44.5149 14.3832 44.7713 14.2959 45.0419V45.0894L14.2545 45.1972C14.1494 45.4922 14.0093 45.657 13.831 45.6983C13.7404 45.725 13.6432 45.7183 13.5572 45.6792C13.5195 45.6604 13.4866 45.6332 13.4612 45.5996C13.4358 45.5661 13.4185 45.5271 13.4107 45.4858C13.3958 45.4394 13.3945 45.3897 13.4069 45.3425C13.4193 45.2953 13.4449 45.2526 13.4808 45.2194C13.6015 45.1302 13.7427 45.0724 13.8915 45.0514L13.9966 45.026L13.8151 44.2428L13.7992 44.2301ZM13.3375 47.6104L16.2667 46.8271L16.0852 46.1517L16.7921 45.9615L17.3938 48.2034L16.687 48.3904L16.4959 47.677L13.5636 48.4602L13.3375 47.6104ZM15.4612 49.5605L15.6427 50.033L17.085 49.2117L15.4612 49.5605ZM13.761 49.05L17.5817 48.4697L17.9574 49.4432L14.7321 51.5424L14.4137 50.7211L15.0505 50.3628L14.8021 49.7286L14.0889 49.884L13.7705 49.0595L13.761 49.05ZM14.9263 51.8405L15.2829 52.6395L18.7215 51.1143L18.3649 50.3152L14.9263 51.8405ZM15.493 53.2198L15.8878 53.9048L16.4387 53.5877C16.6785 53.4524 16.9205 53.3033 17.1646 53.1406C17.4097 52.982 17.6581 52.8076 17.9128 52.6269L16.2062 54.4533L16.6679 55.2461L19.9282 53.3689L19.5366 52.6935L19.024 52.9883C18.8553 53.0866 18.6483 53.2103 18.4127 53.3657C18.1771 53.5211 17.8905 53.705 17.5689 53.9238L19.2119 52.1354L18.7534 51.3458L15.493 53.2198ZM18.6355 55.7091L20.1639 55.0558L18.8903 56.1371L18.6228 55.7091H18.6355ZM16.8685 55.5283L20.4982 54.2345L21.0522 55.1193L18.2885 57.7924L17.8237 57.0504L18.3777 56.5747L18.0115 55.9913L17.3397 56.2798L16.8685 55.5283ZM20.8898 57.3199L20.9248 57.3643C20.9995 57.4771 21.1126 57.5593 21.2432 57.5958C21.3045 57.6041 21.3668 57.5987 21.4257 57.5801C21.4847 57.5614 21.5387 57.53 21.5839 57.488C21.6308 57.4561 21.67 57.4143 21.6987 57.3655C21.7273 57.3167 21.7446 57.2621 21.7495 57.2057C21.7488 57.0791 21.7012 56.9571 21.6158 56.8633C21.6056 56.8484 21.5938 56.8345 21.5807 56.8221C21.575 56.8132 21.5674 56.8056 21.5584 56.7999L20.8866 57.3199H20.8898ZM19.6162 58.3156L19.664 58.3758C19.7466 58.5008 19.8743 58.5893 20.0206 58.6232C20.0911 58.6304 20.1624 58.6228 20.2299 58.6009C20.2973 58.5791 20.3594 58.5435 20.4122 58.4963C20.4657 58.4609 20.5105 58.4141 20.5436 58.3592C20.5766 58.3044 20.597 58.2429 20.6032 58.1792C20.5918 58.0268 20.529 57.8826 20.425 57.7702L20.3867 57.7226L19.6162 58.3219V58.3156ZM18.5496 58.0334L19.1864 58.8547C19.3175 59.0355 19.4716 59.1985 19.6449 59.3398C19.7615 59.4224 19.8974 59.4737 20.0397 59.4889C20.191 59.5042 20.3439 59.488 20.4886 59.4413C20.644 59.3919 20.7895 59.3157 20.9184 59.2162C21.0652 59.1073 21.1805 58.9618 21.2528 58.7944C21.3168 58.6331 21.3302 58.4561 21.291 58.2871C21.4508 58.3183 21.6152 58.3183 21.7749 58.2871C21.9218 58.2559 22.0593 58.1907 22.1761 58.0968C22.3115 58.0013 22.4209 57.8739 22.4945 57.7258C22.5569 57.5878 22.579 57.435 22.5582 57.285C22.5423 57.1735 22.5056 57.066 22.4499 56.9679C22.3477 56.7886 22.2294 56.6188 22.0965 56.4606L21.5138 55.7186L18.5464 58.027L18.5496 58.0334ZM21.6794 61.6737L22.2366 61.1568L21.5138 60.3863L23.7108 58.3441L23.1122 57.7099L20.3581 60.2658L21.6794 61.68V61.6737ZM21.9978 61.9464L24.615 59.2479L26.0892 60.6653L25.5797 61.1885L24.736 60.3767L24.2584 60.8809L25.0385 61.6324L24.5131 62.1715L23.733 61.4232L23.1631 62.013L24.0069 62.8247L23.4752 63.3733L22.001 61.9559L21.9978 61.9464ZM26.3949 63.906L26.8024 64.2009L27.5665 62.7296L26.3949 63.906ZM24.6914 64.3975L25.4078 64.9176L25.9204 64.3975L26.4808 64.8034L26.1624 65.4376L26.8756 65.9513L28.4294 62.4442L27.5856 61.8322L24.7201 64.3849L24.6914 64.3975ZM30.2347 65.6659L29.1107 67.3878L28.6013 67.0707L28.6968 66.8519C28.5774 66.8887 28.4515 66.8995 28.3275 66.8836C28.2048 66.8619 28.0878 66.8155 27.9836 66.7472C27.8555 66.666 27.7468 66.5578 27.6652 66.4301C27.5881 66.3122 27.537 66.1792 27.5156 66.0401C27.4908 65.8431 27.5183 65.643 27.5952 65.4598C27.7484 65.1139 27.935 64.7836 28.1524 64.4736C28.3141 64.2161 28.4939 63.9702 28.6905 63.738C28.8044 63.5977 28.945 63.4813 29.1043 63.3955C29.2756 63.314 29.4671 63.2842 29.6552 63.3099C29.8632 63.3413 30.0614 63.4193 30.2347 63.5382C30.3692 63.611 30.4868 63.7113 30.5796 63.8327C30.6723 63.954 30.7382 64.0936 30.7728 64.2422C30.8079 64.5658 30.7167 64.8905 30.518 65.1491L30.4798 65.203L30.4384 65.2632L29.7348 64.8098L29.7603 64.7685C29.853 64.6504 29.9202 64.5143 29.9577 64.369C29.965 64.3228 29.9583 64.2755 29.9385 64.2331C29.9186 64.1907 29.8865 64.1552 29.8462 64.1312C29.8008 64.0957 29.7448 64.0764 29.687 64.0764C29.6293 64.0764 29.5733 64.0957 29.5278 64.1312C29.3325 64.3168 29.1661 64.5306 29.0343 64.7654L28.8305 65.0825L28.6905 65.2981C28.5325 65.5116 28.4059 65.7465 28.3147 65.9957C28.302 66.0469 28.3064 66.1009 28.327 66.1495C28.3477 66.1981 28.3836 66.2387 28.4294 66.2652C28.472 66.2957 28.5223 66.3136 28.5747 66.317C28.627 66.3204 28.6793 66.309 28.7255 66.2843C28.8581 66.1964 28.9674 66.0778 29.0439 65.9386C29.0725 65.8974 29.0916 65.8657 29.1043 65.8435C29.1183 65.822 29.131 65.7998 29.1426 65.7769L28.8528 65.5898L29.2126 65.0412L30.2156 65.6913L30.2347 65.6659ZM31.3936 66.0972L31.4446 66.1226L31.4923 66.1511C31.6092 66.226 31.7506 66.2533 31.8871 66.2272C31.9486 66.2009 32.0042 66.1627 32.0507 66.1148C32.0971 66.0669 32.1336 66.0102 32.1578 65.9481C32.1911 65.896 32.2132 65.8374 32.2225 65.7763C32.2318 65.7151 32.2282 65.6527 32.2119 65.593C32.1467 65.4719 32.0408 65.3776 31.9126 65.3266L31.868 65.3203L31.8139 65.2981L31.3968 66.113L31.3936 66.0972ZM29.6201 67.6541L30.397 68.0473L31.0816 66.7092L31.2408 66.7916C31.2979 66.8127 31.349 66.8475 31.3895 66.8928C31.4301 66.9381 31.4588 66.9927 31.4732 67.0517C31.4733 67.2144 31.4269 67.3739 31.3395 67.5114C31.3395 67.5336 31.3013 67.5844 31.2599 67.6573L31.1548 67.8507C31.114 67.9321 31.0778 68.0158 31.0466 68.1012C31.0184 68.1798 30.996 68.2604 30.9797 68.3422L31.8967 68.8084C31.8266 68.6498 31.8967 68.3835 32.0718 68.0061L32.1578 67.819C32.3488 67.41 32.352 67.0929 32.1578 66.8677C32.3301 66.8596 32.4966 66.8036 32.6386 66.706C32.9047 66.4835 33.0783 66.1705 33.1257 65.8276C33.1367 65.694 33.1133 65.5597 33.0576 65.4376C33.0018 65.3155 32.9157 65.2096 32.8073 65.13C32.6153 64.9934 32.4119 64.8735 32.1992 64.7717L31.314 64.3246L29.6393 67.6573L29.6201 67.6541ZM32.2596 68.9225L33.8516 65.5264L34.6476 65.8974L33.0556 69.2935L32.2565 68.9225H32.2596ZM35.5455 68.6213L35.4914 68.7767C35.4452 68.9517 35.3603 69.1142 35.243 69.2523C35.1971 69.2895 35.1416 69.3132 35.0829 69.3207C35.0242 69.3282 34.9645 69.3193 34.9106 69.295C34.8567 69.2706 34.8106 69.2317 34.7777 69.1827C34.7447 69.1338 34.7262 69.0766 34.724 69.0176C34.7684 68.6624 34.8605 68.3147 34.9978 67.9839L35.0201 67.9173C35.1093 67.5944 35.2444 67.2858 35.4213 67.0009C35.4594 66.9561 35.5102 66.9239 35.5671 66.9086C35.624 66.8933 35.6842 66.8956 35.7397 66.9153C35.7944 66.9304 35.8436 66.9609 35.8814 67.003C35.9192 67.0452 35.9441 67.0973 35.953 67.1531C35.9631 67.3364 35.9315 67.5196 35.8607 67.689L36.6694 67.9681V67.9364C36.8167 67.5978 36.8314 67.2166 36.7108 66.8677C36.6376 66.7129 36.5312 66.5759 36.3992 66.4664C36.2672 66.3568 36.1128 66.2773 35.9467 66.2335C35.744 66.156 35.5259 66.1267 35.3099 66.1479C35.1212 66.1685 34.9422 66.2422 34.7941 66.3604C34.6617 66.4731 34.5534 66.6111 34.4757 66.7663C34.3308 67.0637 34.2074 67.371 34.1063 67.6859C33.9929 67.9965 33.9003 68.3143 33.8293 68.6371C33.7946 68.8056 33.7946 68.9793 33.8293 69.1477C33.8737 69.3329 33.9711 69.5014 34.1095 69.6328C34.2683 69.7781 34.4576 69.8864 34.6635 69.9499C34.8191 70.0174 34.9875 70.051 35.1572 70.0483C35.3269 70.0455 35.494 70.0066 35.6474 69.9341C35.9539 69.7317 36.174 69.4232 36.2651 69.0684L36.3033 68.9574L36.3224 68.8876L35.5041 68.6086L35.5455 68.6213ZM37.4909 66.8202L38.3442 67.0643L37.7074 69.3221C37.63 69.5313 37.5901 69.7524 37.5896 69.9753C37.6003 70.0218 37.6244 70.0643 37.6589 70.0975C37.6934 70.1307 37.7367 70.1532 37.7838 70.1624C37.8293 70.18 37.8791 70.1837 37.9268 70.173C37.9744 70.1622 38.0178 70.1376 38.0513 70.1021C38.1671 69.9134 38.2499 69.7065 38.2964 69.4901L38.9332 67.2324L39.7737 67.4734L39.1083 69.7723C39.0576 69.9689 38.9905 70.1609 38.9077 70.3463C38.8563 70.4631 38.7852 70.5704 38.6976 70.6634C38.5722 70.7977 38.4051 70.8859 38.2232 70.9139C37.9968 70.9388 37.7677 70.915 37.5514 70.8441C37.3477 70.7952 37.1575 70.7021 36.9942 70.5714C36.8617 70.4546 36.7693 70.2993 36.7299 70.1275C36.702 69.9734 36.702 69.8155 36.7299 69.6614C36.7829 69.3614 36.8541 69.0649 36.9432 68.7735L37.5036 66.8329L37.4909 66.8202ZM41.2543 71.5259L41.3848 70.7807L40.3437 70.6L40.8659 67.651L39.9966 67.4988L39.3599 71.193L41.2702 71.5101L41.2543 71.5259ZM41.7223 71.5259L42.0917 68.5262L41.3944 68.4405L41.4835 67.7176L43.7919 67.9998L43.7028 68.7227L42.9672 68.6308L42.5979 71.6306L41.7223 71.5259ZM43.7919 68.0378L43.7218 70.0546C43.7027 70.3587 43.7027 70.6637 43.7218 70.9678C43.7358 71.1235 43.779 71.2751 43.8492 71.4149C43.9268 71.5736 44.0543 71.7027 44.2122 71.7828C44.403 71.8699 44.6104 71.9154 44.8203 71.9159C45.0475 71.9322 45.2755 71.8998 45.4889 71.8208C45.6589 71.7491 45.8001 71.623 45.8901 71.4625C45.9512 71.3549 45.9942 71.2382 46.0174 71.1169C46.053 70.9169 46.0722 70.7143 46.0748 70.5112L46.1576 68.1203L45.2852 68.0886L45.2024 70.4383C45.2123 70.6596 45.1821 70.8809 45.1132 71.0915C45.0902 71.1339 45.0546 71.1682 45.0113 71.1898C44.9681 71.2113 44.9191 71.2191 44.8712 71.212C44.8232 71.2153 44.7752 71.2044 44.7333 71.1807C44.6914 71.1571 44.6574 71.1216 44.6356 71.0788C44.5814 70.8623 44.5663 70.6379 44.591 70.4161L44.6738 68.0695L43.7855 68.0378H43.7919ZM47.4375 69.5948H47.5489C47.6883 69.6028 47.8257 69.5587 47.9342 69.4711C47.9747 69.4184 48.0043 69.3581 48.0213 69.2939C48.0382 69.2297 48.0422 69.1627 48.0329 69.0969C48.0366 69.0349 48.0276 68.9728 48.0062 68.9144C47.9848 68.8561 47.9517 68.8027 47.9087 68.7576C47.7921 68.6849 47.6537 68.6546 47.5171 68.672H47.4693H47.412L47.4439 69.5821L47.4375 69.5948ZM46.6447 71.8145L46.5142 68.0664L47.5044 68.0315C47.7402 68.018 47.9767 68.0254 48.2112 68.0537C48.3417 68.0702 48.4663 68.1181 48.5742 68.1932C48.6826 68.277 48.7689 68.3859 48.8257 68.5103C48.8869 68.6538 48.9193 68.8078 48.9212 68.9637C48.9343 69.1516 48.9015 69.3398 48.8257 69.5123C48.7498 69.6657 48.6316 69.7944 48.485 69.8833C48.762 69.9943 48.9149 70.2734 48.9467 70.7236C48.9467 70.768 48.9467 70.8378 48.9467 70.9266C48.9658 71.3483 49.0454 71.6115 49.1823 71.713L48.1571 71.7479C48.1287 71.6698 48.1084 71.5891 48.0966 71.5069C48.0828 71.4155 48.0743 71.3234 48.0711 71.231C48.0711 71.1708 48.0711 71.0978 48.0711 71.0154V70.8473C48.0792 70.6849 48.0417 70.5235 47.9629 70.3812C47.9228 70.3381 47.873 70.305 47.8177 70.2847C47.7624 70.2643 47.7031 70.2572 47.6445 70.2639H47.463L47.5139 71.7606L46.6447 71.7923V71.8145ZM49.5771 71.6876L51.6117 71.4403L51.5161 70.6824L50.354 70.8251L50.2521 70.0133L51.3283 69.8802L51.2359 69.135L50.1598 69.265L50.077 68.5832L51.2423 68.4405L51.1531 67.7176L49.1186 67.9649L49.5771 71.6876ZM58.6099 69.5662L57.1995 66.0782L59.1098 65.3139L59.3837 65.9862L58.2947 66.4238L58.5527 67.058L59.5588 66.6521L59.8421 67.3497L58.836 67.7556L59.1544 68.5135L60.2433 68.0759L60.5299 68.783L58.6195 69.5472L58.6099 69.5662ZM61.0393 68.5896L61.7748 68.2027L60.3388 65.6659L62.2492 67.9459L62.8414 67.6288L62.0009 64.7907L63.2999 67.3846L64.0354 66.9977L62.2555 63.7348L61.1762 64.3024L61.6283 65.8562C61.6283 65.8784 61.6761 65.9925 61.7493 66.1955L61.9308 66.706L61.5869 66.2335L61.4118 65.9862L60.3611 64.7178L59.2754 65.2949L61.0425 68.6054L61.0393 68.5896ZM64.2232 64.3119L63.6692 63.5541L63.7329 63.5097C63.8419 63.4121 63.9813 63.355 64.1277 63.348C64.1877 63.3558 64.2452 63.377 64.2959 63.4099C64.3466 63.4428 64.3892 63.4867 64.4206 63.5382C64.5136 63.6466 64.5624 63.7858 64.5576 63.9282C64.5419 63.9942 64.5129 64.0563 64.4724 64.1109C64.4319 64.1654 64.3807 64.2111 64.322 64.2453C64.3026 64.2593 64.2824 64.272 64.2614 64.2834L64.2232 64.3056V64.3119ZM64.7677 66.5601L62.5389 63.5255L63.2394 63.0182C63.4274 62.8757 63.6265 62.7485 63.8348 62.6376C63.9579 62.5755 64.092 62.5378 64.2296 62.5267C64.3974 62.5132 64.565 62.5544 64.7072 62.644C64.8807 62.7524 65.0302 62.8948 65.1466 63.0626C65.2477 63.1832 65.3235 63.3228 65.3695 63.4731C65.4154 63.6235 65.4306 63.7815 65.414 63.9378C65.3781 64.0941 65.3115 64.2417 65.218 64.3723C65.1246 64.5029 65.0062 64.6139 64.8696 64.6988L64.6212 64.8795L65.4682 66.0401L64.7518 66.5601H64.7677ZM67.334 62.6947L66.9137 62.162C66.7698 61.945 66.5875 61.7558 66.3756 61.6039C66.3221 61.588 66.2655 61.5852 66.2107 61.5957C66.1558 61.6062 66.1044 61.6297 66.0607 61.6642C66.0169 61.6988 65.9821 61.7433 65.9594 61.7941C65.9366 61.8449 65.9265 61.9004 65.9298 61.9559C66.0284 62.196 66.1685 62.4171 66.3438 62.6091L66.7608 63.1418C66.9044 63.3563 67.0856 63.5432 67.2957 63.6936C67.349 63.7115 67.4058 63.716 67.4612 63.7068C67.5166 63.6976 67.5688 63.6748 67.6132 63.6406C67.6576 63.6064 67.6929 63.5618 67.7159 63.5107C67.7388 63.4596 67.7487 63.4037 67.7447 63.348C67.6477 63.1077 67.5087 62.8865 67.334 62.6947ZM65.8439 63.4241C66.0391 63.6874 66.2519 63.9374 66.4806 64.1724C66.6028 64.2958 66.7492 64.3929 66.9105 64.4578C67.0906 64.5204 67.2848 64.5314 67.4708 64.4895C67.6802 64.4356 67.8749 64.336 68.0408 64.1978C68.2138 64.0701 68.3571 63.9068 68.4611 63.719C68.5456 63.5502 68.5809 63.3612 68.563 63.1735C68.5399 63.0007 68.4814 62.8345 68.391 62.6852C68.0391 62.127 67.6305 61.6063 67.1716 61.1314C67.0479 61.0083 66.9007 60.9113 66.7386 60.846C66.5595 60.7837 66.3664 60.7727 66.1814 60.8143C65.9724 60.8676 65.7778 60.9662 65.6114 61.1029C65.4392 61.2314 65.296 61.3945 65.1912 61.5817C65.1039 61.7518 65.0674 61.9433 65.0861 62.1335C65.1102 62.3045 65.1698 62.4686 65.2612 62.6154C65.4321 62.8978 65.6225 63.168 65.8311 63.4241H65.8439ZM69.7856 62.6535L66.5539 60.586L67.1684 59.9518L68.6266 61.0743C68.7858 61.198 68.9195 61.2995 69.0246 61.3914C69.1297 61.4834 69.2252 61.55 69.308 61.6198C69.204 61.5035 69.1053 61.3893 69.0119 61.2773C68.9164 61.1663 68.8304 61.0553 68.7476 60.9602L67.63 59.4952L68.2446 58.861L69.7569 59.9296C69.8174 59.9709 69.9512 60.0723 70.1645 60.2467L70.4574 60.4687L70.1072 60.066C70.0212 59.9708 69.9511 59.8852 69.897 59.8187L68.7094 58.4012L69.3271 57.767L71.5177 60.9063L70.8554 61.588L69.5818 60.659L69.2379 60.3958L68.875 60.0977C68.9991 60.2341 69.1074 60.3609 69.1934 60.4687C69.2793 60.5765 69.3749 60.6843 69.4545 60.7858L70.4351 62.0003L69.7729 62.6852L69.7856 62.6535ZM72.2436 60.1167L73.5172 58.509L72.9154 58.0397L72.1927 58.9593L71.5559 58.4551L72.2213 57.6053L71.6259 57.1423L70.935 58.027L70.3873 57.6021L71.1101 56.6825L70.5338 56.2354L69.2602 57.8431L72.2277 60.1516L72.2436 60.1167ZM72.5206 56.1467L72.5588 56.0991L72.5906 56.0579C72.6805 55.953 72.7271 55.8182 72.7212 55.6805C72.7059 55.614 72.6767 55.5514 72.6355 55.4968C72.5944 55.4421 72.5423 55.3967 72.4824 55.3634C72.4354 55.3224 72.3801 55.2918 72.3202 55.2738C72.2604 55.2557 72.1973 55.2506 72.1353 55.2588C72.0012 55.3027 71.8879 55.3941 71.8169 55.5156L71.7883 55.56C71.7883 55.5822 71.766 55.5981 71.7596 55.6108L72.5079 56.134L72.5206 56.1467ZM73.8228 58.1127L74.3227 57.4024L73.0873 56.5399L73.1924 56.394C73.2214 56.3408 73.2629 56.2954 73.3134 56.2618C73.3638 56.2281 73.4217 56.2071 73.4821 56.2006C73.6444 56.223 73.7969 56.2913 73.9215 56.3972L74.0553 56.4955L74.2336 56.6255C74.3078 56.679 74.3855 56.7277 74.466 56.7713C74.5408 56.81 74.6185 56.8428 74.6984 56.8696L75.2874 56.0293C75.1219 56.0779 74.864 55.9828 74.5137 55.7439L74.3418 55.633C73.9629 55.3856 73.6477 55.3381 73.3866 55.4934C73.4042 55.3228 73.3709 55.1508 73.2911 54.9988C73.1125 54.7017 72.8247 54.4856 72.4887 54.3963C72.3562 54.3613 72.2169 54.3613 72.0844 54.3963C71.964 54.4387 71.8551 54.5081 71.766 54.5992C71.6012 54.7687 71.453 54.9534 71.3234 55.151L70.7567 55.9564L73.8228 58.1127Z" fill="#005D80"/>
<path fill-rule="evenodd" clip-rule="evenodd" d="M76.207 54.5803L72.8511 52.8775L73.784 51.0573L74.4208 51.3744L73.889 52.4113L74.4972 52.7284L74.9907 51.7771L75.6657 52.1196L75.1722 53.0709L76.5922 53.7939L76.191 54.5771L76.207 54.5803ZM76.3088 51.1683L76.5158 50.7085L74.9238 50.2741L76.3216 51.1683H76.3088ZM77.1462 52.7253L77.506 51.9198L76.8915 51.5266L77.1749 50.8924L77.8785 51.0827L78.2351 50.2836L74.4654 49.4972L74.0419 50.4485L77.1462 52.7189V52.7253ZM76.5572 48.4761C76.5612 48.4574 76.5676 48.4393 76.5763 48.4222C76.5839 48.4058 76.5903 48.3888 76.5954 48.3715C76.6457 48.2419 76.6457 48.0983 76.5954 47.9688C76.5594 47.9132 76.5128 47.8652 76.4582 47.8277C76.4035 47.7901 76.3419 47.7637 76.277 47.75C76.2199 47.7244 76.1581 47.7112 76.0955 47.7112C76.033 47.7112 75.9711 47.7244 75.914 47.75C75.8036 47.8324 75.7267 47.9518 75.6975 48.0861C75.6964 48.103 75.6964 48.1199 75.6975 48.1368C75.6975 48.159 75.6975 48.1781 75.6816 48.1939L76.554 48.4761H76.5572ZM78.3784 49.976L74.7965 48.8313L75.1149 47.88C75.1834 47.6554 75.2707 47.4369 75.376 47.2268C75.4368 47.1101 75.5253 47.01 75.6338 46.935C75.7496 46.8615 75.8821 46.8179 76.0191 46.8082C76.1758 46.8013 76.3325 46.8239 76.4808 46.8748C76.6616 46.9277 76.8273 47.0222 76.9647 47.1507C77.0835 47.2737 77.1652 47.4275 77.2003 47.5946C77.3978 47.3758 77.713 47.3282 78.1555 47.4519L78.3529 47.5122C78.7573 47.6358 79.0311 47.6517 79.1776 47.5565L78.8592 48.5332C78.7747 48.5298 78.6907 48.5202 78.6077 48.5047C78.518 48.4877 78.4297 48.4644 78.3434 48.4349C78.2861 48.4159 78.216 48.3937 78.1364 48.362L77.9772 48.3081C77.8272 48.2424 77.6613 48.2215 77.4996 48.2478C77.4441 48.2712 77.3951 48.3077 77.3569 48.354C77.3186 48.4004 77.2922 48.4554 77.2799 48.5142L77.2226 48.6886L78.6554 49.1516L78.388 49.976H78.3784ZM79.3336 47.2268L79.5215 46.4182L76.6559 45.841L79.6233 45.914L79.7761 45.2798L77.073 44.0494L79.894 44.7724L80.0786 43.967L76.4234 43.1235L76.1496 44.3095L77.6238 44.9849C77.6429 44.9849 77.7543 45.042 77.9422 45.1212L78.4485 45.3178L77.8658 45.2639L77.5474 45.2354L75.914 45.2037L75.637 46.3991L79.3049 47.2426L79.3336 47.2268ZM80.1869 43.3296L76.4426 42.9396L76.6559 40.9102L77.3818 40.9863L77.2608 42.1468L77.9486 42.2198L78.0632 41.148L78.8146 41.2241L78.7 42.2991L79.5183 42.3847L79.6265 41.2209L80.3875 41.3002L80.1741 43.3296H80.1869ZM78.3179 39.8416C78.3179 39.8416 78.3179 39.8067 78.3179 39.7845C78.3192 39.7665 78.3192 39.7485 78.3179 39.7306C78.3334 39.5935 78.2971 39.4556 78.216 39.3437C78.1658 39.2998 78.1072 39.2664 78.0438 39.2457C77.9803 39.225 77.9132 39.2174 77.8467 39.2232C77.7845 39.2155 77.7213 39.2211 77.6615 39.2397C77.6016 39.2583 77.5464 39.2894 77.4996 39.331C77.4199 39.4425 77.3817 39.5782 77.3914 39.7147C77.39 39.7316 77.39 39.7486 77.3914 39.7654V39.8257H78.3084L78.3179 39.8416ZM80.5021 40.7453L76.7355 40.6787L76.7546 39.6925C76.7499 39.4576 76.7692 39.2228 76.8119 38.9917C76.8361 38.8635 76.8907 38.7428 76.9711 38.6397C77.0562 38.5365 77.1656 38.4559 77.2895 38.4051C77.4371 38.351 77.594 38.3262 77.7512 38.3322C77.939 38.3288 78.1249 38.3713 78.2925 38.4558C78.4433 38.5389 78.567 38.6632 78.6491 38.8141C78.7732 38.5446 79.063 38.4083 79.5151 38.3987H79.7316C80.155 38.3987 80.4225 38.3353 80.5339 38.2021L80.5148 39.2264C80.4345 39.2486 80.3525 39.2645 80.2697 39.2739C80.1774 39.2789 80.0849 39.2789 79.9927 39.2739H79.773H79.6074C79.4446 39.2574 79.2805 39.2859 79.133 39.3564C79.0869 39.3947 79.0507 39.4436 79.0274 39.4987C79.0041 39.5539 78.9945 39.6138 78.9993 39.6735V39.8511L80.5053 39.8796L80.5021 40.7453Z" fill="#00668D"/>
<path fill-rule="evenodd" clip-rule="evenodd" d="M78.8815 33.9785C79.2315 34.0231 79.5496 34.2036 79.7665 34.4808C79.9834 34.7579 80.0816 35.1092 80.0395 35.4581C79.9975 35.807 79.8188 36.1252 79.5422 36.3434C79.2657 36.5616 78.9137 36.6622 78.5631 36.6231C78.2131 36.5785 77.895 36.398 77.6781 36.1208C77.4611 35.8437 77.363 35.4924 77.405 35.1435C77.447 34.7946 77.6258 34.4764 77.9023 34.2581C78.1789 34.0399 78.5308 33.9394 78.8815 33.9785Z" fill="#005D80"/>
<path fill-rule="evenodd" clip-rule="evenodd" d="M20.0645 4.86238C20.0645 4.8347 20.109 4.94545 20.1313 4.92391L20.0645 4.86238Z" fill="#BB9345"/>
<path fill-rule="evenodd" clip-rule="evenodd" d="M12.9267 11.5797C12.9522 11.5582 12.8662 11.5213 12.8599 11.5151L12.9267 11.5797Z" fill="#BB9345"/>
<path fill-rule="evenodd" clip-rule="evenodd" d="M27.5505 1.47271V1.90079L29.5755 2.11325C29.082 2.74745 29.9193 2.58572 26.8755 2.3257C27.0729 1.51393 27.4582 0.477026 28.1968 0.13139C29.5182 -0.486952 28.4261 1.26659 27.5505 1.47271Z" fill="#BB9345"/>
<path fill-rule="evenodd" clip-rule="evenodd" d="M26.7321 75.1855C24.6848 74.0249 24.9172 74.526 24.1849 72.3792C23.2902 69.7283 22.8731 66.9695 21.8001 64.4137C21.5321 63.7845 21.1174 63.2279 20.5902 62.7902V70.4576C19.5968 70.2071 18.6162 68.9926 17.9348 68.2823C15.8557 66.1229 16.9 61.3061 15.8653 58.7408L14.961 57.0444C14.2797 58.3857 14.0632 62.0545 13.8371 63.6432C13.4657 63.3546 13.158 62.993 12.9329 62.5809C11.8726 61.0366 11.1084 60.1931 11.3918 57.9259C11.5319 56.8065 11.5033 55.4113 11.6529 54.1207C11.7707 53.1187 11.4237 51.9296 11.1339 50.8736H10.685C10.6181 51.6283 9.36046 55.2781 9.09301 56.1977C6.9152 54.6883 8.93702 49.7796 9.23313 48.0261L9.55152 43.4218C8.27794 44.3002 7.06486 47.747 6.4026 49.1708H5.95046C5.87086 48.2703 5.14494 46.2503 5.16723 45.9998C5.21499 45.4354 5.94728 43.704 6.26567 43.092C7.73665 40.2604 7.67618 40.7455 8.87653 37.2574C7.70165 37.5175 7.37052 38.3704 6.56817 39.1188L4.60047 41.3036C4.60047 38.6939 4.46356 36.8167 6.34208 34.857C8.32249 32.7927 8.4435 32.4946 9.77757 29.8056C8.8001 30.0213 8.12511 30.5984 7.40236 31.1787L5.05261 32.7864C5.09718 32.2822 5.17358 31.8763 5.27547 31.296C5.65754 29.1175 8.35753 27.8238 9.81259 26.4317L11.5797 24.2691C11.0703 24.2484 10.564 24.3576 10.1087 24.5862L6.4026 26.1907C7.35778 24.4816 7.72075 23.7142 9.50375 22.5251L13.3786 19.5919L8.87653 20.8603C9.98772 16.3543 14.372 17.7718 15.8557 15.1113L13.0347 15.4791L12.8947 15.495L12.0286 15.5362L13.2289 14.1156C14.3242 13.1358 17.0497 12.6094 18.5557 12.1306V11.4964L15.6297 11.712C15.8175 9.60015 18.4602 10.0092 19.6669 9.56844L21.0328 8.72813L18.5557 8.51567C19.7879 6.77797 21.7874 6.8953 23.7328 6.81286V6.17866L21.7078 5.96621C23.0482 4.23485 24.2549 4.48536 26.2099 4.47585L24.1849 3.84165L25.5349 1.50146C22.0326 3.25819 24.9905 3.37551 21.2589 5.54446C21.5773 4.67562 21.2143 5.63008 21.5773 4.9832L22.6343 3.1694C20.724 3.20746 20.3451 4.91345 19.9757 6.1755C19.6573 7.24729 18.9155 7.48828 17.9062 8.07808L19.2594 5.30981C18.1641 5.55081 17.9412 5.66496 17.2853 6.42917C16.4606 7.38046 16.7663 7.41535 16.6326 8.38567C16.3779 10.1995 15.2985 10.9224 14.0855 12.1242C14.4261 10.7417 15.4323 9.02938 16.1136 7.65317C15.1935 7.72611 14.5216 8.33493 14.0441 8.88985C13.3659 9.6826 13.1621 10.0504 13.1844 11.4805C13.2067 12.9963 13.1048 13.3229 12.5094 14.252L11.7261 15.2033C11.0066 16.0721 12.3152 14.3661 11.4683 15.5965L11.1499 15.9675C11.1849 14.5881 12.0477 12.6094 12.503 11.2839C10.5163 11.4425 9.45598 14.2108 9.68841 15.847C9.9686 17.8193 10.2297 17.2581 9.43053 18.8118C9.03776 19.671 8.47457 20.4422 7.77486 21.0791C8.34478 19.9534 8.09326 19.8107 8.25882 18.3425L8.89561 15.5426C8.22061 15.6916 8.73004 15.5013 8.25882 15.7772L8.12512 15.8628C6.95025 16.6461 6.38987 18.7548 6.21476 20.0136C5.99506 21.5611 7.28773 22.6995 6.7178 24.4372C6.7178 24.4657 6.68596 24.5228 6.67322 24.5545L5.76581 26.6156V20.4195L4.8329 21.0315C3.40331 22.3951 3.33645 25.5058 3.96369 27.0215C5.43785 30.6047 5.03348 29.4727 4.18973 34.2609H3.96369C3.96369 31.8224 3.37149 29.5044 3.06265 27.0215C1.03766 27.532 1.23186 32.2473 1.93233 33.6267C2.88751 35.4753 3.80449 35.9161 3.96369 38.0946C4.00189 38.6178 3.79812 39.363 3.96369 40.8628C2.88751 40.1145 2.01195 36.8674 1.71266 35.5388C-0.31233 36.9435 0.986713 41.3543 2.22527 42.721C3.35238 43.9672 3.96368 43.6723 4.23431 45.7144L5.09081 49.805C4.32985 49.545 4.5782 49.1264 4.02101 48.4732C2.54048 46.7355 2.20935 46.0791 1.03766 44.056H0.588716C-0.137223 47.4902 1.5216 50.75 3.8809 52.2245L5.70529 53.2677C6.12239 53.5658 6.20517 53.7782 6.41849 54.2951L7.56474 57.4661C7.11899 57.1839 7.31637 57.2822 6.97568 56.9587L6.26248 56.3562C5.69256 55.963 5.37098 55.7221 4.86792 55.332C4.65726 55.1812 4.45921 55.0136 4.27571 54.831L2.38765 52.7826C2.38765 54.7613 2.62008 55.6364 3.38104 56.9524C4.142 58.2683 5.29139 59.5558 6.82923 60.0758C10.4748 61.3125 9.98771 61.3791 11.8439 64.493C11.1721 64.0681 11.2963 64.03 10.4685 63.6622C9.91993 63.4231 9.38808 63.1477 8.87653 62.8377L6.45355 60.6593C6.47905 62.0469 6.8975 63.3992 7.66074 64.5605C8.42399 65.7217 9.50099 66.6447 10.7678 67.2232C12.2069 67.8574 13.888 67.8574 15.1139 68.4345C16.0436 68.8689 17.1739 70.3625 17.9316 71.0918C16.2173 70.8789 14.5919 70.2108 13.2258 69.1575L13.108 69.056L12.9902 68.9546L11.6306 68.3204C12.8532 70.7303 11.8758 70.4164 14.4611 72.8834C15.049 73.4209 15.7144 73.8677 16.4352 74.2089L17.0465 74.4816C18.7085 75.1443 19.6223 75.1507 21.5359 75.1316C21.918 75.1316 22.7776 75.0936 23.1087 75.1316C23.7455 75.2172 23.7455 75.3219 24.1881 75.6041C25.3375 76.3398 25.0127 76.2985 26.3118 76.8027L26.7321 75.1855Z" fill="#BB9345"/>
<path fill-rule="evenodd" clip-rule="evenodd" d="M64.8497 1.47271V1.90079L62.8247 2.11325C63.3182 2.74745 62.4808 2.58572 65.5247 2.3257C65.3273 1.51393 64.9421 0.477026 64.2034 0.13139C62.882 -0.486952 63.9741 1.26659 64.8497 1.47271Z" fill="#BB9345"/>
<path fill-rule="evenodd" clip-rule="evenodd" d="M65.6685 75.1855C67.7157 74.0249 67.4833 74.526 68.2156 72.3792C69.1103 69.7283 69.5274 66.9695 70.6004 64.4137C70.8684 63.7845 71.2831 63.2279 71.8103 62.7902V70.4576C72.8036 70.2071 73.7843 68.9926 74.4657 68.2823C76.5448 66.1229 75.5005 61.3061 76.5353 58.7408L77.4395 57.0444C78.1208 58.3857 78.3374 62.0545 78.5634 63.6432C78.9348 63.3546 79.2425 62.993 79.4677 62.5809C80.5279 61.0366 81.292 60.1931 81.0087 57.9259C80.8686 56.8065 80.8972 55.4113 80.7476 54.1207C80.6298 53.1187 80.9768 51.9296 81.2666 50.8736H81.7155C81.7824 51.6283 83.0401 55.2781 83.3075 56.1977C85.4853 54.6883 83.4635 49.7796 83.1674 48.0261L82.849 43.4218C84.1226 44.3002 85.3357 47.747 85.9979 49.1708H86.4501C86.5296 48.2703 87.2556 46.2503 87.2333 45.9998C87.1855 45.4354 86.4532 43.704 86.1348 43.092C84.6638 40.2604 84.7243 40.7455 83.524 37.2574C84.6989 37.5175 85.03 38.3704 85.8323 39.1188L87.8 41.3036C87.8 38.6939 87.9369 36.8167 86.0584 34.857C84.078 32.7927 83.957 32.4946 82.6229 29.8056C83.6004 30.0213 84.2754 30.5984 84.9982 31.1787L87.3479 32.7864C87.3065 32.2822 87.2269 31.8763 87.125 31.296C86.743 29.1175 84.043 27.8238 82.5879 26.4317L80.8208 24.2691C81.3303 24.2484 81.8366 24.3576 82.2918 24.5862L85.9979 26.1907C85.0427 24.4816 84.6798 23.7142 82.8968 22.5251L79.0219 19.5919L83.524 20.8603C82.4128 16.3543 78.0285 17.7718 76.5448 15.1113L79.3689 15.4791L79.5059 15.495L80.3719 15.5362L79.1715 14.1156C78.0763 13.1358 75.3508 12.6094 73.8448 12.1306V11.4964L76.7709 11.712C76.583 9.60015 73.9403 10.0092 72.7336 9.56844L71.3677 8.72813L73.8448 8.51567C72.6126 6.77797 70.6131 6.8953 68.6677 6.81286V6.17866L70.6927 5.96621C69.3522 4.23485 68.1456 4.48536 66.1906 4.47585L68.2156 3.84165L66.8656 1.50146C70.368 3.25819 67.4101 3.37551 71.1416 5.54446C70.8232 4.67562 71.1862 5.63008 70.8232 4.9832L69.7789 3.20428C71.6893 3.24233 72.0682 4.94832 72.4375 6.21037C72.7559 7.28216 73.4978 7.52316 74.5071 8.11296L73.1571 5.34469C74.2492 5.58569 74.472 5.69985 75.1279 6.46406C75.9526 7.41535 75.6469 7.45023 75.7807 8.42055C76.0354 10.2343 77.1147 10.9573 78.3278 12.1591C77.9871 10.7766 76.9842 9.06426 76.2996 7.68805C77.2198 7.76098 77.8916 8.36981 78.3692 8.92473C79.0474 9.71747 79.2511 10.0853 79.2289 11.5154C79.2066 13.0312 79.3085 13.3578 79.9038 14.2869L80.6871 15.2382C81.4067 16.107 80.0981 14.401 80.9482 15.6314L81.2666 16.0024C81.2316 14.623 80.3687 12.6443 79.9134 11.3188C81.9002 11.4774 82.9604 14.2456 82.728 15.8819C82.4478 17.8542 82.1899 17.2929 82.9859 18.8467C83.3787 19.7059 83.9418 20.4771 84.6416 21.114C84.0716 19.9883 84.3232 19.8456 84.1576 18.3774L83.5208 15.5774C84.1958 15.7265 83.6864 15.5362 84.1576 15.8121L84.2913 15.8977C85.4694 16.681 86.0266 18.7897 86.2017 20.0485C86.4214 21.596 85.1287 22.7343 85.6986 24.472C85.6986 24.5006 85.7305 24.5577 85.7432 24.5894L86.6506 26.6505V20.4195L87.5835 21.0315C89.0131 22.3951 89.08 25.5058 88.4559 27.0215C86.9786 30.6047 87.3829 29.4727 88.2267 34.2609H88.4527C88.4527 31.8224 89.045 29.5044 89.3538 27.0215C91.3788 27.532 91.1845 32.2473 90.4841 33.6267C89.5289 35.4753 88.6119 35.9161 88.4527 38.0946C88.4145 38.6178 88.6183 39.363 88.4527 40.8628C89.5289 40.1145 90.4045 36.8674 90.7038 35.5388C92.7288 36.9435 91.4297 41.3543 90.1912 42.721C89.0641 43.9672 88.4527 43.6723 88.1821 45.7144L87.3256 49.805C88.0866 49.545 87.8382 49.1264 88.3954 48.4732C89.876 46.7355 90.2071 46.0791 91.3788 44.056H91.8277C92.5536 47.4902 90.898 50.75 88.5355 52.2245L86.7111 53.2677C86.294 53.5658 86.2112 53.7782 85.9979 54.2951L84.8517 57.4661C85.2975 57.1839 85.1 57.2822 85.4407 56.9587L86.1539 56.3562C86.7239 55.963 87.0454 55.7221 87.5485 55.332C87.7591 55.1812 87.9572 55.0136 88.1407 54.831L90.0288 52.7826C90.0288 54.7613 89.7964 55.6364 89.0354 56.9524C88.2744 58.2683 87.125 59.5558 85.5872 60.0758C81.9416 61.3125 82.4319 61.3791 80.5757 64.493C81.2443 64.0681 81.1201 64.03 81.948 63.6622C82.4965 63.4231 83.0284 63.1477 83.5399 62.8377L85.9629 60.6593C85.9374 62.0469 85.5189 63.3992 84.7557 64.5605C83.9924 65.7217 82.9154 66.6447 81.6486 67.2232C80.2095 67.8574 78.5284 67.8574 77.3026 68.4345C76.3728 68.8689 75.2426 70.3625 74.4848 71.0918C76.1992 70.8789 77.8245 70.2108 79.1906 69.1575L79.3085 69.056L79.4263 68.9546L80.7858 68.3204C79.5632 70.7303 80.5406 70.4164 77.9553 72.8834C77.3674 73.4209 76.702 73.8677 75.9812 74.2089L75.3699 74.4816C73.7079 75.1443 72.7941 75.1507 70.8806 75.1316C70.4985 75.1316 69.6388 75.0936 69.3077 75.1316C68.6709 75.2172 68.6709 75.3219 68.2283 75.6041C67.0789 76.3398 67.4037 76.2985 66.1047 76.8027L65.6685 75.1855Z" fill="#BB9345"/>
<path fill-rule="evenodd" clip-rule="evenodd" d="M72.3354 4.86238C72.3354 4.8347 72.2908 4.94545 72.2686 4.92391L72.3354 4.86238Z" fill="#BB9345"/>
<path fill-rule="evenodd" clip-rule="evenodd" d="M79.474 11.5797C79.4517 11.5582 79.5345 11.5213 79.5409 11.5151L79.474 11.5797Z" fill="#BB9345"/>
<path fill-rule="evenodd" clip-rule="evenodd" d="M85.7754 57.0755C85.7977 57.0539 85.8391 57.1339 85.8422 57.137L85.7754 57.0755Z" fill="#BB9345"/>
<path fill-rule="evenodd" clip-rule="evenodd" d="M40.2987 64.2137C37.9585 61.9147 36.8313 60.5543 36.1213 57.079C35.9371 56.2818 35.8136 55.472 35.752 54.6563C35.6695 53.8303 35.6471 52.9995 35.6851 52.1703C37.1115 54.0348 37.7165 54.2726 39.3403 54.7071C41.6741 55.3413 40.996 55.1066 43.2629 56.0959C43.8074 55.3983 42.9445 53.7494 44.1289 50.2835C45.0109 47.7468 45.6891 46.9064 47.1187 44.6487C50.8152 49.494 52.8497 52.1861 52.4645 57.6497C53.3114 57.1107 54.8716 57.2375 55.7822 57.1455L59.1635 56.1942C59.4373 56.857 58.3357 58.6264 57.8899 59.6823C57.3073 61.1251 56.5623 62.0257 56.2407 63.1228C59.0807 61.8545 60.4116 61.2932 63.0479 59.2955C62.0227 57.9541 61.1566 56.356 60.5485 55.5125C60.2098 55.0977 59.9002 54.6601 59.622 54.2029C58.6159 52.3605 52.3626 44.2682 50.8566 42.5559L49.1755 40.6152C48.4495 41.167 46.345 43.152 45.2465 43.9701C44.3646 44.6297 44.0207 45.08 43.2916 45.6476L38.8086 49.0342C37.9999 49.6684 37.621 49.7476 36.8982 50.2772C35.6772 51.2386 34.4015 52.129 33.0775 52.944L29.2886 55.2905C28.6996 55.6615 27.9673 56.0738 27.3782 56.3655C26.2893 56.9141 26.6523 56.9331 27.426 57.6719C29.2709 59.4264 31.369 60.896 33.6506 62.032C34.9464 62.6726 39.111 64.2866 40.2987 64.2137Z" fill="#236E49"/>
<path fill-rule="evenodd" clip-rule="evenodd" d="M37.4936 55.5364V55.4746C37.4936 55.4746 37.4618 55.5333 37.4936 55.5364Z" fill="#236E49"/>
<path fill-rule="evenodd" clip-rule="evenodd" d="M45.4022 64.9017C46.0899 58.0492 39.5278 58.3029 37.6143 55.4459L38.1237 55.6837C44.014 58.8895 46.5324 59.9265 46.4592 64.2897C47.2329 63.9156 47.1501 64.0202 47.529 63.2306C50.5442 56.9996 48.2327 49.9125 48.0289 48.457C49.6846 52.2083 50.0189 58.7088 48.2041 63.9631C51.4071 64.2802 54.1835 60.6082 55.0527 59.3018C54.1484 62.5742 53.5976 62.0827 51.0409 64.0392C49.7673 64.9905 49.2643 64.87 48.1181 64.943C47.2616 65.0032 46.1536 65.1586 45.4022 64.9017Z" fill="#236E49"/>
<path fill-rule="evenodd" clip-rule="evenodd" d="M41.9417 17.8128L42.7886 17.1786C51.5827 10.5195 58.0015 11.6706 62.1501 16.5729L62.8411 15.4821C54.48 9.14017 45.6478 9.77436 38.8628 11.0428C39.1597 11.5629 39.4194 12.1033 39.6397 12.66C40.1873 13.8491 41.5469 17.2706 41.9417 17.8128Z" fill="#AD2646"/>
<path fill-rule="evenodd" clip-rule="evenodd" d="M48.2682 34.0988L49.3698 35.5448C50.0544 34.9994 52.1494 32.4119 52.8372 31.5906C52.4232 31.4669 52.2991 31.5494 51.882 31.5684C51.2993 31.5906 49.2266 31.283 48.8063 31.0769C44.8805 30.1605 42.2697 24.44 40.4007 21.269L37.4683 22.9211C37.8811 23.3726 38.3316 23.7885 38.8151 24.1641C41.7984 26.8087 45.8771 30.9691 48.2682 34.0988Z" fill="#AD2646"/>
<path fill-rule="evenodd" clip-rule="evenodd" d="M42.5562 19.7023C43.2991 19.1886 44.0155 18.7077 44.7053 18.2595L43.4827 21.7888C43.1643 21.1102 42.8459 20.4126 42.5562 19.7023ZM45.8388 17.546L43.9921 22.8733C44.4929 23.9272 45.0477 24.9549 45.6542 25.9523L48.6852 15.932C47.7916 16.3886 46.8428 16.9266 45.8388 17.546ZM49.7105 15.4373L46.2527 26.8528C46.8324 27.7206 47.5397 28.4966 48.3509 29.155L52.5633 14.4004C51.5787 14.6592 50.6196 15.0063 49.6978 15.4373H49.7105ZM53.4962 14.2101C54.276 14.0744 55.0726 14.0647 55.8555 14.1816L50.9427 30.2268C50.2869 30.1747 49.6508 29.9787 49.0801 29.6528L53.4962 14.2101ZM56.6802 14.3687C57.6371 14.6752 58.5093 15.1996 59.2273 15.9003L54.4737 29.1708C53.6732 29.7004 52.7675 30.0519 51.8183 30.2014L56.6674 14.3687H56.6802ZM59.8832 16.5884C60.4285 17.2272 60.9114 17.9163 61.3255 18.6463L56.0784 27.208L59.8832 16.5884Z" fill="#AD2646"/>
<path fill-rule="evenodd" clip-rule="evenodd" d="M39.6364 19.1254C39.1943 19.5093 38.7155 19.8492 38.2068 20.1401L38.627 16.8962L39.6364 19.1159V19.1254ZM37.4394 20.4636L37.968 15.4471L36.376 11.959L36.1245 12.0383L35.0865 20.9836L35.5705 21.4307C36.1468 21.2119 36.8695 20.7267 37.4235 20.454L37.4394 20.4636ZM34.3255 20.416L35.2807 12.3522C34.4385 12.6584 33.6201 13.0262 32.8323 13.4525L31.9376 18.618L34.3415 20.416H34.3255ZM31.1703 18.0568L28.8364 16.3127C29.7764 15.4534 30.7919 14.6797 31.8707 14.0011L31.1703 18.0568Z" fill="#AD2646"/>
<path fill-rule="evenodd" clip-rule="evenodd" d="M61.0038 42.9743C61.2728 42.7715 61.5845 42.6322 61.9154 42.5668C62.2464 42.5015 62.5879 42.5118 62.9142 42.597L63.551 41.132C63.2567 40.9439 63.0039 40.6981 62.8081 40.4096C62.6123 40.1211 62.4775 39.7959 62.412 39.4538C62.3465 39.1117 62.3515 38.7599 62.4269 38.4199C62.5023 38.0798 62.6465 37.7586 62.8505 37.4758L62.0704 36.7275C62.0036 36.7877 61.9335 36.848 61.8603 36.9051C61.3031 37.3251 60.6013 37.5079 59.909 37.4134C59.2166 37.3188 58.5901 36.9547 58.1669 36.4009L58.1064 36.3184L57.1958 36.997C57.3597 37.4389 57.3766 37.9214 57.2442 38.3736C57.1118 38.8258 56.837 39.2236 56.4603 39.5084C56.2534 39.6648 56.0207 39.7839 55.7726 39.8604L55.8681 39.8445L56.0847 41.1288C56.4408 41.0928 56.8005 41.1337 57.1392 41.2489C57.478 41.3641 57.7878 41.5507 58.0474 41.7961C58.3071 42.0414 58.5105 42.3398 58.6438 42.6706C58.7771 43.0015 58.8371 43.3571 58.8196 43.7131L60.2492 43.9319C60.3994 43.5539 60.6518 43.2246 60.9784 42.9807L61.0038 42.9743ZM51.729 38.5128C52.1716 38.072 52.5982 37.6376 53.0026 37.2126C52.9167 37.5446 52.9101 37.892 52.9833 38.2269C53.0566 38.5619 53.2076 38.8751 53.4242 39.1414C53.6409 39.4078 53.9173 39.6199 54.2311 39.7607C54.5449 39.9015 54.8875 39.9672 55.2313 39.9524H55.1963L55.4224 41.2905C55.217 41.3703 55.0232 41.4769 54.8461 41.6076C54.5861 41.8087 54.3695 42.06 54.2093 42.3465L51.7354 38.4969L51.729 38.5128ZM54.5086 35.6589C56.5176 33.5375 58.1892 31.6222 59.6029 29.8623C59.6431 29.9289 59.6867 29.9935 59.7334 30.0557C60.0118 30.4199 60.3984 30.6873 60.8383 30.82L60.5613 32.2088C60.1182 32.1619 59.6704 32.2276 59.2597 32.3997C58.849 32.5719 58.4888 32.8449 58.2128 33.1933C57.9368 33.5416 57.7539 33.954 57.6813 34.3918C57.6087 34.8296 57.6487 35.2787 57.7976 35.6969L56.8647 36.3914C56.5874 36.0499 56.2146 35.798 55.7935 35.6676C55.3724 35.5372 54.9219 35.5342 54.499 35.6589H54.5086ZM62.0673 26.6343C63.7466 24.2861 65.2605 21.8248 66.598 19.2681C66.7636 19.4393 66.9164 19.6137 67.0851 19.7881C66.9171 20.0237 66.8052 20.2942 66.7579 20.5793C66.7105 20.8643 66.7289 21.1564 66.8118 21.4333C66.8947 21.7102 67.0398 21.9646 67.2361 22.1773C67.4324 22.3901 67.6748 22.5555 67.9448 22.661L67.6455 24.1641H67.6933C67.2845 24.1216 66.8714 24.1768 66.4883 24.3251C66.1052 24.4734 65.7631 24.7105 65.4904 25.0168C65.2177 25.3231 65.0223 25.6897 64.9204 26.0863C64.8184 26.4828 64.8128 26.8979 64.9042 27.297L63.4236 27.7187C63.3652 27.6079 63.2982 27.5019 63.223 27.4016C62.9342 27.0223 62.528 26.7482 62.0673 26.6216V26.6343ZM69.3203 22.6578C69.0999 22.743 68.8657 22.7871 68.6294 22.7879L68.3301 24.2972L68.1613 24.2655C68.541 24.3771 68.8898 24.574 69.1808 24.8412C69.4718 25.1084 69.6973 25.4386 69.8398 25.8064C69.9823 26.1742 70.0379 26.5696 70.0025 26.9622C69.9671 27.3549 69.8415 27.7341 69.6355 28.0707L70.9696 29.2313L71.0141 29.1964C71.3807 28.9182 71.8269 28.7638 72.2877 28.7556C71.575 26.6033 70.5782 24.5549 69.3235 22.6642L69.3203 22.6578ZM71.3102 26.463C71.7807 27.5454 72.1816 28.6564 72.5106 29.7894C72.3105 29.3579 71.9985 28.9873 71.6067 28.7159C71.215 28.4444 70.7576 28.2819 70.2818 28.2451L70.2277 26.9514C70.6305 26.8937 71.0089 26.7245 71.3198 26.463H71.3102ZM72.7462 30.6582C72.8672 31.1212 72.9723 31.5873 73.0646 32.0598L72.622 31.7427C72.738 31.3925 72.7792 31.022 72.743 30.6551L72.7462 30.6582ZM73.574 39.7399C73.4314 41.4751 73.1341 43.1942 72.6857 44.8769L71.7305 44.4139C71.9016 43.9156 71.8873 43.3727 71.6902 42.8841C71.4931 42.3954 71.1264 41.9935 70.6568 41.7514C70.1872 41.5094 69.646 41.4433 69.1316 41.5653C68.6172 41.6873 68.1639 41.9892 67.8542 42.4161C67.5446 42.8429 67.3991 43.3663 67.4443 43.891C67.4895 44.4157 67.7224 44.9067 68.1006 45.2748C68.4788 45.6428 68.9771 45.8634 69.5049 45.8963C70.0326 45.9292 70.5546 45.7722 70.9759 45.454C71.1373 45.3329 71.281 45.1899 71.4026 45.0291L72.482 45.5618C72.1689 46.6387 71.7958 47.6973 71.3644 48.7328C71.0916 48.4625 70.7297 48.2998 70.3457 48.2747C69.9617 48.2496 69.5816 48.3639 69.2757 48.5965C69.0999 48.7255 68.9526 48.8893 68.8431 49.0775C68.7335 49.2657 68.664 49.4744 68.6389 49.6905L68.1518 49.7666C68.0534 49.423 67.8841 49.1036 67.6548 48.8289C67.4254 48.5541 67.1411 48.3301 66.8198 48.171C66.4986 48.012 66.1476 47.9214 65.7892 47.9051C65.4309 47.8888 65.073 47.9472 64.7386 48.0764L63.7388 46.4656C64.0074 46.2434 64.2198 45.9616 64.359 45.6428C64.4982 45.3239 64.5602 44.9769 64.5401 44.6298C64.5199 44.2827 64.4182 43.9452 64.2431 43.6444C64.068 43.3436 63.8243 43.088 63.5319 42.8982L64.1686 41.4427C64.5953 41.5735 65.0488 41.5916 65.4846 41.4952C65.9204 41.3988 66.3236 41.1913 66.6546 40.893C66.9856 40.5947 67.233 40.2158 67.3727 39.7935C67.5124 39.3712 67.5395 38.92 67.4513 38.4842L68.5275 38.0339C68.6155 38.2117 68.7222 38.3796 68.8459 38.535C69.0592 38.8148 69.3258 39.0499 69.6304 39.227C69.9351 39.4041 70.2718 39.5197 70.6213 39.5671C70.9709 39.6146 71.3263 39.5929 71.6674 39.5034C72.0085 39.4139 72.3286 39.2583 72.6093 39.0455C72.6758 38.995 72.7396 38.941 72.8003 38.8838L73.5486 39.7526L73.574 39.7399ZM72.7303 45.2289C72.5142 45.2593 72.2942 45.2451 72.0839 45.1873C71.8736 45.1295 71.6774 45.0292 71.5076 44.8928C71.3757 44.7881 71.2617 44.6628 71.1701 44.5217L70.7371 44.7057C70.8366 45.0911 70.8447 45.4944 70.7607 45.8835C70.6767 46.2726 70.503 46.6369 70.2532 46.9475L70.2054 47.0046L71.6127 48.7328C72.0527 47.5926 72.4258 46.428 72.7303 45.2447V45.2289ZM67.6774 55.2048C67.117 55.9595 66.5152 56.6941 65.8721 57.4086C65.8434 57.1159 65.7367 56.8361 65.5631 56.5981C65.3895 56.3602 65.1553 56.1727 64.8846 56.055C64.614 55.9374 64.3167 55.8938 64.0234 55.9289C63.7302 55.9639 63.4517 56.0763 63.2167 56.2544L63.1562 56.3019L62.7677 55.6963L62.8537 55.636C63.1693 55.3969 63.3885 55.053 63.4715 54.6667C63.5544 54.2804 63.4956 53.8773 63.3058 53.5305L64.296 52.6141L64.2737 52.5887C64.6095 52.8125 64.9934 52.9543 65.3945 53.0028C65.7955 53.0513 66.2024 53.005 66.5821 52.8678L67.6774 55.2048ZM60.9911 52.9153L56.5941 46.0724C57.0742 46.029 57.5314 45.8481 57.9105 45.5516C58.2896 45.255 58.5744 44.8555 58.7305 44.4013L60.141 44.62C60.1083 45.1473 60.2677 45.6686 60.5899 46.0882C60.8843 46.4737 61.2973 46.7528 61.7658 46.8827C62.2344 47.0127 62.7327 46.9864 63.1848 46.808L64.175 48.3935C63.9058 48.5972 63.6795 48.8518 63.5091 49.1427C63.3387 49.4335 63.2276 49.755 63.1821 50.0886C63.1365 50.4223 63.1575 50.7617 63.2437 51.0873C63.33 51.4129 63.4798 51.7184 63.6847 51.9862L63.7993 52.1289L62.876 52.9819C62.6098 52.7812 62.2888 52.6652 61.9553 52.6494C61.6217 52.6335 61.2912 52.7185 61.007 52.8931L60.9911 52.9153ZM67.2762 37.812L68.3747 37.3522C68.3068 36.9552 68.3298 36.5481 68.4421 36.1613C68.5543 35.7744 68.7528 35.4178 69.0228 35.1181C69.2929 34.8184 69.6273 34.5833 70.0014 34.4304C70.3754 34.2775 70.7793 34.2107 71.1829 34.2351L71.4535 32.916C71.1655 32.7878 70.9088 32.5988 70.7012 32.3622C70.4936 32.1256 70.3399 31.847 70.2509 31.5455C70.1619 31.2441 70.1397 30.927 70.1857 30.6161C70.2317 30.3053 70.3449 30.0081 70.5174 29.745L69.2152 28.6066C69.1479 28.6721 69.0767 28.7336 69.0019 28.7905C68.4557 29.2031 67.7675 29.3831 67.0882 29.291C66.4089 29.1988 65.7941 28.8421 65.3786 28.299C65.2993 28.1934 65.228 28.0821 65.1652 27.9661L63.6528 28.4005C63.7019 28.7064 63.6849 29.0192 63.6028 29.318C63.5206 29.6168 63.3754 29.8946 63.1767 30.133C62.9781 30.3714 62.7306 30.5647 62.4509 30.7002C62.1711 30.8356 61.8656 30.9099 61.5546 30.9183L61.2617 32.3737C61.6175 32.5157 61.9379 32.7332 62.2007 33.011C62.4636 33.2888 62.6625 33.6203 62.7837 33.9825C62.9049 34.3446 62.9455 34.7286 62.9026 35.1079C62.8597 35.4872 62.7343 35.8527 62.5353 36.1789L63.3536 36.9653L63.4077 36.9241C63.677 36.7197 63.9841 36.5703 64.3115 36.4844C64.6389 36.3984 64.98 36.3777 65.3154 36.4234C65.6509 36.469 65.9739 36.5802 66.2662 36.7505C66.5584 36.9207 66.814 37.1467 67.0183 37.4156C67.1121 37.5376 67.1942 37.6682 67.2635 37.8056L67.2762 37.812Z" fill="#009AA3"/>
<path fill-rule="evenodd" clip-rule="evenodd" d="M31.7721 43.7351C32.1669 44.2552 35.7584 47.09 36.548 47.7274L39.6269 45.0162C38.2897 44.7308 37.1976 44.1854 36.5162 43.1929C35.7917 42.2626 35.4308 41.1021 35.5005 39.9268C35.9304 35.7062 39.9262 35.053 42.8045 37.2505C43.8552 38.0527 44.6798 39.4068 44.5748 40.5103C45.2461 39.9574 45.878 39.3587 46.466 38.7186C46.8736 38.2842 46.9372 38.3001 46.4947 37.7674C46.2845 37.5137 45.8579 37.1585 45.5172 36.8002L41.0215 32.4528C40.2223 31.7266 40.1077 32.0469 37.8121 32.957C34.3671 34.3205 32.4694 34.3522 32.081 37.0951C32.0483 37.4511 31.9941 37.8048 31.9186 38.1542L31.2818 41.4077C31.1799 42.026 31.2818 43.0914 31.7721 43.7351Z" fill="#0072A0"/>
<path fill-rule="evenodd" clip-rule="evenodd" d="M18.5587 37.416L19.5553 36.4648C21.9051 35.171 23.9173 35.3264 25.5093 37.2733C27.3751 39.7182 26.7829 41.7603 24.9107 43.2316C24.1466 44.1195 21.8828 44.4651 20.5933 43.9102L19.2624 43.3299L20.8735 48.1879C21.3606 48.0864 22.3222 47.4998 22.8443 47.2366C24.7547 46.3138 27.8718 45.0898 28.7155 43.7485C29.0477 43.2182 29.2108 42.6003 29.1835 41.9759L29.5019 38.1359C29.1835 35.2503 28.1615 35.3517 25.7863 33.7218C24.6369 32.9291 23.7772 32.352 22.5005 32.4154C21.9624 32.4408 19.2624 33.4587 18.9249 34.0009C18.6765 34.3751 18.5301 36.9214 18.5587 37.416Z" fill="#0072A0"/>
<path fill-rule="evenodd" clip-rule="evenodd" d="M25.1621 30.3253C25.9358 31.34 29.868 33.2267 31.3199 33.5882C33.4945 34.1241 35.0515 32.453 36.4906 31.432L38.401 30.1636L36.0799 28.1246L34.7872 29.6721C31.9726 32.1676 26.5089 28.8413 26.9197 25.2613C26.8592 24.0404 27.324 23.273 27.7889 22.2488L25.6556 21.2056C24.2165 22.4962 24.4489 25.5435 24.4489 27.8393C24.4425 28.5052 24.6399 29.6435 25.1621 30.3253Z" fill="#0072A0"/>
<path fill-rule="evenodd" clip-rule="evenodd" d="M25.6877 55.7472C25.8755 55.113 25.8118 55.6837 25.5826 54.9766C25.3534 54.2695 25.0572 53.0138 25.2164 52.4398C25.7163 49.8174 27.2223 48.1622 30.1133 48.7361C31.3646 48.9835 32.1861 49.6874 33.2431 50.4009L35.6884 48.362C35.2968 47.9275 34.9752 47.8546 34.4881 47.6231C29.6899 45.3337 30.349 44.2745 25.2546 47.9117C24.6656 48.3588 22.3222 50.2836 22.1821 50.6229C22.0007 51.0795 22.0962 51.127 22.9145 52.3415C23.7003 53.582 24.6312 54.7252 25.6877 55.7472Z" fill="#0072A0"/>
<path fill-rule="evenodd" clip-rule="evenodd" d="M19.2851 32.1169C22.0456 30.3633 21.9182 30.636 22.2557 27.316L22.6855 23.0859C21.6794 24.3131 19.2055 30.8041 19.2851 32.1169Z" fill="#0072A0"/>
<path d="M32.7302 78.9267H30.7562L29.7437 81.4222H28.2695L31.0396 75.0264H32.4628L35.2424 81.4222H33.7332L32.7302 78.9267ZM32.7302 78.9267L31.7432 76.4787L30.7562 78.9267" fill="#14AEDF"/>
<path d="M37.7896 76.6153C38.0975 76.4896 38.428 76.4281 38.7607 76.4345V77.7505C38.6078 77.7505 38.5028 77.7315 38.4423 77.7315C38.2715 77.7215 38.1004 77.7467 37.9399 77.8057C37.7794 77.8646 37.6328 77.9559 37.5094 78.0739C37.3879 78.2146 37.2956 78.3778 37.2377 78.5541C37.1798 78.7304 37.1574 78.9164 37.1719 79.1013V81.4225H35.7837V76.5075H37.1082V77.1417C37.2816 76.9064 37.5176 76.7241 37.7896 76.6153Z" fill="#14AEDF"/>
<path d="M40.9734 76.5073H39.5884V81.4223H40.9734V76.5073Z" fill="#14AEDF"/>
<path d="M43.6482 74.6426V77.0176C43.8363 76.8271 44.0632 76.679 44.3136 76.5832C44.5866 76.4822 44.8758 76.4317 45.167 76.4342C45.4313 76.4227 45.6952 76.4654 45.9422 76.5598C46.1892 76.6542 46.4141 76.7982 46.6029 76.9828C46.7975 77.2044 46.9458 77.4624 47.0392 77.7416C47.1327 78.0209 47.1695 78.3159 47.1474 78.6095V81.4221H45.7624V78.8283C45.7867 78.5174 45.6986 78.2081 45.514 77.9562C45.4236 77.8573 45.312 77.7799 45.1874 77.7299C45.0628 77.68 44.9284 77.6587 44.7944 77.6677C44.6407 77.6584 44.4868 77.6819 44.343 77.7366C44.1991 77.7913 44.0686 77.8759 43.9602 77.9848C43.7309 78.2631 43.617 78.6181 43.6418 78.9773V81.4063H42.2568V74.6426" fill="#14AEDF"/>
<path d="M52.0348 76.9766C52.2452 77.1922 52.4071 77.4498 52.5097 77.7325C52.6124 78.0152 52.6534 78.3163 52.6302 78.616V81.4224H51.3344V80.8103C51.0733 81.267 50.5872 81.4953 49.8761 81.4953C49.5471 81.5035 49.2206 81.4374 48.9209 81.3019C48.669 81.192 48.4555 81.0101 48.3076 80.7791C48.1596 80.5482 48.0838 80.2788 48.0899 80.0049C48.0816 79.7983 48.123 79.5927 48.2105 79.4052C48.298 79.2177 48.4291 79.0537 48.593 78.9268C49.0528 78.6305 49.5975 78.4924 50.1436 78.5336H51.2452C51.2532 78.4014 51.2326 78.269 51.1848 78.1453C51.137 78.0217 51.0632 77.9097 50.9682 77.8169C50.735 77.6327 50.4404 77.5432 50.1436 77.5664C49.888 77.5665 49.6342 77.6083 49.3922 77.6901C49.1625 77.7569 48.9468 77.8643 48.7554 78.0072L48.2587 77.0115C48.5425 76.8121 48.8594 76.664 49.1948 76.5739C49.5602 76.4698 49.9385 76.4175 50.3187 76.4185C50.9414 76.3788 51.5557 76.5786 52.0348 76.9766ZM50.8536 80.3664C51.0397 80.2524 51.1786 80.0758 51.2452 79.8686V79.3676H50.29C49.7233 79.3676 49.4367 79.5578 49.4367 79.9415C49.4337 80.0255 49.4512 80.1089 49.4878 80.1846C49.5244 80.2603 49.579 80.326 49.6469 80.3759C49.8148 80.491 50.0165 80.5468 50.22 80.5345C50.443 80.5398 50.6628 80.4815 50.8536 80.3664Z" fill="#14AEDF"/>
<path d="M58.2243 76.983C58.4188 77.2046 58.5671 77.4626 58.6606 77.7419C58.7541 78.0212 58.7908 78.3161 58.7687 78.6097V81.4224H57.3837V78.8285C57.4081 78.5176 57.32 78.2083 57.1354 77.9565C57.0448 77.8577 56.9332 77.7805 56.8086 77.7305C56.684 77.6805 56.5498 77.6592 56.4158 77.6679C56.2616 77.6588 56.1073 77.6824 55.9629 77.737C55.8186 77.7917 55.6875 77.8762 55.5784 77.985C55.349 78.2633 55.2351 78.6184 55.26 78.9775V81.4065H53.875V76.4915H55.1963V77.0654C55.3857 76.8569 55.6196 76.6933 55.8809 76.5866C56.1663 76.4729 56.4713 76.4158 56.7788 76.4186C57.0458 76.4078 57.3122 76.4524 57.561 76.5496C57.8099 76.6468 58.0357 76.7943 58.2243 76.983Z" fill="#14AEDF"/>
<path d="M63.5451 81.1755C63.3962 81.2861 63.2261 81.3649 63.0452 81.407C62.8375 81.4618 62.6233 81.4885 62.4084 81.4862C62.17 81.5016 61.9308 81.4701 61.7046 81.3934C61.4784 81.3166 61.2697 81.1963 61.0903 81.0391C60.9254 80.8637 60.7988 80.6563 60.7183 80.4298C60.6377 80.2034 60.605 79.9628 60.6222 79.7232V77.7033H59.8867V76.6061H60.6254V75.4106H62.0104V76.6061H63.2012V77.7033H62.0104V79.7041C62.0002 79.8776 62.0559 80.0486 62.1664 80.183C62.223 80.2413 62.2916 80.2867 62.3674 80.3163C62.4432 80.3458 62.5245 80.3588 62.6058 80.3542C62.8085 80.3606 63.007 80.2955 63.1662 80.1703L63.5451 81.1755Z" fill="#14AEDF"/>
<path d="M40.283 75.8384C40.7138 75.8384 41.0631 75.4906 41.0631 75.0616C41.0631 74.6325 40.7138 74.2847 40.283 74.2847C39.8522 74.2847 39.5029 74.6325 39.5029 75.0616C39.5029 75.4906 39.8522 75.8384 40.283 75.8384Z" fill="#9F1738"/>
<path d="M107.391 71.292V64.1886H112.011V65.2673H108.677V67.1958H111.771V68.2745H108.677V70.2133H112.038V71.292H107.391Z" fill="#BB9345"/>
<path d="M114.524 64.1886V71.292H113.268V64.1886H114.524Z" fill="#BB9345"/>
<path d="M115.815 71.292V65.9645H117.07V71.292H115.815ZM116.446 65.2083C116.247 65.2083 116.076 65.1424 115.933 65.0106C115.789 64.8765 115.718 64.7158 115.718 64.5285C115.718 64.3389 115.789 64.1782 115.933 64.0464C116.076 63.9123 116.247 63.8452 116.446 63.8452C116.647 63.8452 116.818 63.9123 116.959 64.0464C117.103 64.1782 117.174 64.3389 117.174 64.5285C117.174 64.7158 117.103 64.8765 116.959 65.0106C116.818 65.1424 116.647 65.2083 116.446 65.2083Z" fill="#BB9345"/>
<path d="M119.388 65.9645L120.463 67.9311L121.556 65.9645H122.884L121.278 68.6282L122.912 71.292H121.591L120.463 69.374L119.346 71.292H118.015L119.638 68.6282L118.056 65.9645H119.388Z" fill="#BB9345"/>
<path d="M123.855 71.292V65.9645H125.111V71.292H123.855ZM124.487 65.2083C124.288 65.2083 124.117 65.1424 123.973 65.0106C123.83 64.8765 123.758 64.7158 123.758 64.5285C123.758 64.3389 123.83 64.1782 123.973 64.0464C124.117 63.9123 124.288 63.8452 124.487 63.8452C124.688 63.8452 124.859 63.9123 125 64.0464C125.143 64.1782 125.215 64.3389 125.215 64.5285C125.215 64.7158 125.143 64.8765 125 65.0106C124.859 65.1424 124.688 65.2083 124.487 65.2083Z" fill="#BB9345"/>
<path d="M126.402 71.292V65.9645H127.62V66.8524H127.675C127.772 66.5448 127.939 66.3078 128.175 66.1413C128.413 65.9725 128.684 65.8881 128.99 65.8881C129.059 65.8881 129.136 65.8916 129.222 65.8985C129.31 65.9032 129.383 65.9113 129.441 65.9228V67.0778C129.387 67.0593 129.303 67.0431 129.187 67.0293C129.074 67.0131 128.964 67.005 128.858 67.005C128.629 67.005 128.423 67.0547 128.24 67.1541C128.06 67.2513 127.918 67.3865 127.814 67.5599C127.71 67.7334 127.658 67.9334 127.658 68.16V71.292H126.402Z" fill="#BB9345"/>
<path d="M132.753 71.292V64.1886H135.417C135.962 64.1886 136.42 64.2903 136.79 64.4938C137.163 64.6973 137.443 64.9771 137.633 65.3332C137.825 65.687 137.921 66.0893 137.921 66.5402C137.921 66.9957 137.825 67.4004 137.633 67.7542C137.441 68.108 137.158 68.3866 136.783 68.5901C136.409 68.7913 135.947 68.8918 135.399 68.8918H133.634V67.834H135.226C135.545 67.834 135.806 67.7785 136.01 67.6675C136.213 67.5565 136.364 67.4039 136.461 67.2096C136.56 67.0154 136.61 66.7923 136.61 66.5402C136.61 66.2882 136.56 66.0662 136.461 65.8743C136.364 65.6823 136.212 65.5332 136.006 65.4268C135.803 65.3182 135.54 65.2638 135.219 65.2638H134.04V71.292H132.753Z" fill="#BB9345"/>
<path d="M138.983 71.292V65.9645H140.201V66.8524H140.256C140.353 66.5448 140.52 66.3078 140.756 66.1413C140.994 65.9725 141.265 65.8881 141.571 65.8881C141.64 65.8881 141.717 65.8916 141.803 65.8985C141.891 65.9032 141.964 65.9113 142.022 65.9228V67.0778C141.968 67.0593 141.884 67.0431 141.768 67.0293C141.655 67.0131 141.545 67.005 141.439 67.005C141.21 67.005 141.004 67.0547 140.821 67.1541C140.641 67.2513 140.499 67.3865 140.395 67.5599C140.291 67.7334 140.239 67.9334 140.239 68.16V71.292H138.983Z" fill="#BB9345"/>
<path d="M142.856 71.292V65.9645H144.111V71.292H142.856ZM143.487 65.2083C143.288 65.2083 143.117 65.1424 142.974 65.0106C142.83 64.8765 142.759 64.7158 142.759 64.5285C142.759 64.3389 142.83 64.1782 142.974 64.0464C143.117 63.9123 143.288 63.8452 143.487 63.8452C143.688 63.8452 143.859 63.9123 144 64.0464C144.144 64.1782 144.215 64.3389 144.215 64.5285C144.215 64.7158 144.144 64.8765 144 65.0106C143.859 65.1424 143.688 65.2083 143.487 65.2083Z" fill="#BB9345"/>
<path d="M150.161 65.9645L148.264 71.292H146.877L144.979 65.9645H146.318L147.543 69.922H147.598L148.826 65.9645H150.161Z" fill="#BB9345"/>
<path d="M152.411 71.3995C152.073 71.3995 151.769 71.3394 151.498 71.2192C151.23 71.0966 151.017 70.9163 150.86 70.6781C150.705 70.4399 150.628 70.1463 150.628 69.7971C150.628 69.4965 150.683 69.2479 150.794 69.0514C150.905 68.8548 151.057 68.6976 151.249 68.5797C151.44 68.4617 151.657 68.3727 151.897 68.3126C152.14 68.2502 152.391 68.2051 152.65 68.1773C152.962 68.145 153.215 68.1161 153.409 68.0906C153.604 68.0629 153.745 68.0213 153.833 67.9658C153.923 67.9079 153.968 67.8189 153.968 67.6987V67.6779C153.968 67.4166 153.89 67.2143 153.735 67.0709C153.581 66.9275 153.357 66.8558 153.066 66.8558C152.759 66.8558 152.515 66.9229 152.334 67.057C152.156 67.1911 152.036 67.3495 151.973 67.5322L150.801 67.3657C150.894 67.042 151.046 66.7714 151.259 66.5541C151.472 66.3344 151.732 66.1702 152.039 66.0616C152.347 65.9506 152.687 65.8951 153.059 65.8951C153.316 65.8951 153.571 65.9251 153.826 65.9853C154.08 66.0454 154.312 66.1448 154.523 66.2835C154.733 66.42 154.902 66.6061 155.029 66.842C155.159 67.0778 155.223 67.3726 155.223 67.7264V71.292H154.016V70.5602H153.975C153.898 70.7082 153.791 70.8469 153.652 70.9764C153.516 71.1036 153.344 71.2065 153.135 71.2851C152.93 71.3614 152.688 71.3995 152.411 71.3995ZM152.737 70.4769C152.989 70.4769 153.207 70.4272 153.392 70.3278C153.577 70.226 153.719 70.0919 153.819 69.9254C153.92 69.759 153.971 69.5774 153.971 69.3809V68.7531C153.932 68.7855 153.865 68.8155 153.77 68.8433C153.678 68.871 153.574 68.8953 153.458 68.9161C153.342 68.9369 153.228 68.9554 153.115 68.9716C153.001 68.9878 152.903 69.0017 152.82 69.0132C152.632 69.0387 152.465 69.0803 152.317 69.1381C152.169 69.1959 152.052 69.2768 151.967 69.3809C151.881 69.4826 151.838 69.6144 151.838 69.7763C151.838 70.0075 151.923 70.1821 152.091 70.3C152.26 70.418 152.475 70.4769 152.737 70.4769Z" fill="#BB9345"/>
<path d="M159.146 65.9645V66.9356H156.084V65.9645H159.146ZM156.84 64.6881H158.095V69.6896C158.095 69.8584 158.121 69.9879 158.172 70.0781C158.225 70.1659 158.294 70.226 158.38 70.2584C158.465 70.2908 158.56 70.307 158.664 70.307C158.743 70.307 158.814 70.3012 158.879 70.2896C158.946 70.2781 158.997 70.2677 159.032 70.2584L159.243 71.24C159.176 71.2631 159.08 71.2886 158.956 71.3163C158.833 71.344 158.683 71.3602 158.505 71.3649C158.19 71.3741 157.907 71.3267 157.655 71.2227C157.403 71.1163 157.203 70.9521 157.055 70.7301C156.909 70.5081 156.837 70.2307 156.84 69.8977V64.6881Z" fill="#BB9345"/>
<path d="M162.498 71.3961C161.964 71.3961 161.502 71.2851 161.114 71.0631C160.728 70.8388 160.43 70.522 160.222 70.1127C160.014 69.7011 159.91 69.2167 159.91 68.6595C159.91 68.1114 160.014 67.6305 160.222 67.2166C160.433 66.8004 160.726 66.4766 161.103 66.2454C161.48 66.0119 161.923 65.8951 162.432 65.8951C162.76 65.8951 163.07 65.9483 163.361 66.0546C163.655 66.1587 163.914 66.3205 164.138 66.5402C164.365 66.7599 164.543 67.0397 164.672 67.3796C164.802 67.7172 164.867 68.1195 164.867 68.5866V68.9716H160.5V68.1253H163.663C163.661 67.8848 163.609 67.6709 163.507 67.4836C163.405 67.294 163.263 67.1449 163.08 67.0362C162.9 66.9275 162.69 66.8732 162.449 66.8732C162.192 66.8732 161.967 66.9356 161.773 67.0605C161.579 67.183 161.427 67.3449 161.318 67.5461C161.212 67.7449 161.158 67.9634 161.155 68.2016V68.9404C161.155 69.2502 161.212 69.5162 161.325 69.7381C161.439 69.9578 161.597 70.1266 161.801 70.2445C162.004 70.3602 162.242 70.418 162.515 70.418C162.698 70.418 162.863 70.3925 163.011 70.3417C163.159 70.2885 163.287 70.211 163.396 70.1093C163.505 70.0075 163.587 69.8815 163.642 69.7312L164.815 69.863C164.741 70.1729 164.6 70.4434 164.391 70.6746C164.186 70.9036 163.922 71.0816 163.601 71.2088C163.279 71.3336 162.912 71.3961 162.498 71.3961Z" fill="#BB9345"/>
<path d="M168.407 71.292V64.1886H169.694V70.2133H172.822V71.292H168.407Z" fill="#BB9345"/>
<path d="M173.884 71.292V65.9645H175.139V71.292H173.884ZM174.515 65.2083C174.316 65.2083 174.145 65.1424 174.002 65.0106C173.858 64.8765 173.787 64.7158 173.787 64.5285C173.787 64.3389 173.858 64.1782 174.002 64.0464C174.145 63.9123 174.316 63.8452 174.515 63.8452C174.716 63.8452 174.887 63.9123 175.028 64.0464C175.172 64.1782 175.243 64.3389 175.243 64.5285C175.243 64.7158 175.172 64.8765 175.028 65.0106C174.887 65.1424 174.716 65.2083 174.515 65.2083Z" fill="#BB9345"/>
<path d="M176.431 71.292V65.9645H177.631V66.8697H177.693C177.804 66.5645 177.988 66.3263 178.245 66.1552C178.501 65.9818 178.808 65.8951 179.164 65.8951C179.524 65.8951 179.828 65.9829 180.076 66.1587C180.326 66.3321 180.501 66.5691 180.603 66.8697H180.659C180.777 66.5737 180.975 66.3379 181.255 66.1622C181.537 65.9841 181.871 65.8951 182.258 65.8951C182.748 65.8951 183.148 66.05 183.458 66.3599C183.767 66.6697 183.922 67.1218 183.922 67.716V71.292H182.663V67.9103C182.663 67.5796 182.576 67.338 182.4 67.1854C182.224 67.0304 182.009 66.953 181.755 66.953C181.452 66.953 181.215 67.0478 181.044 67.2374C180.875 67.4247 180.79 67.6686 180.79 67.9692V71.292H179.559V67.8582C179.559 67.5831 179.476 67.3634 179.309 67.1992C179.145 67.0351 178.93 66.953 178.664 66.953C178.484 66.953 178.32 66.9992 178.172 67.0917C178.024 67.1819 177.906 67.3102 177.818 67.4767C177.73 67.6409 177.686 67.8328 177.686 68.0525V71.292H176.431Z" fill="#BB9345"/>
<path d="M185.196 71.292V65.9645H186.452V71.292H185.196ZM185.827 65.2083C185.629 65.2083 185.458 65.1424 185.314 65.0106C185.171 64.8765 185.099 64.7158 185.099 64.5285C185.099 64.3389 185.171 64.1782 185.314 64.0464C185.458 63.9123 185.629 63.8452 185.827 63.8452C186.029 63.8452 186.2 63.9123 186.341 64.0464C186.484 64.1782 186.556 64.3389 186.556 64.5285C186.556 64.7158 186.484 64.8765 186.341 65.0106C186.2 65.1424 186.029 65.2083 185.827 65.2083Z" fill="#BB9345"/>
<path d="M190.403 65.9645V66.9356H187.341V65.9645H190.403ZM188.097 64.6881H189.352V69.6896C189.352 69.8584 189.378 69.9879 189.429 70.0781C189.482 70.1659 189.551 70.226 189.637 70.2584C189.722 70.2908 189.817 70.307 189.921 70.307C190 70.307 190.071 70.3012 190.136 70.2896C190.203 70.2781 190.254 70.2677 190.289 70.2584L190.5 71.24C190.433 71.2631 190.337 71.2886 190.212 71.3163C190.09 71.344 189.94 71.3602 189.762 71.3649C189.447 71.3741 189.164 71.3267 188.912 71.2227C188.66 71.1163 188.46 70.9521 188.312 70.7301C188.166 70.5081 188.094 70.2307 188.097 69.8977V64.6881Z" fill="#BB9345"/>
<path d="M193.755 71.3961C193.221 71.3961 192.759 71.2851 192.371 71.0631C191.985 70.8388 191.687 70.522 191.479 70.1127C191.271 69.7011 191.167 69.2167 191.167 68.6595C191.167 68.1114 191.271 67.6305 191.479 67.2166C191.69 66.8004 191.983 66.4766 192.36 66.2454C192.737 66.0119 193.18 65.8951 193.689 65.8951C194.017 65.8951 194.327 65.9483 194.618 66.0546C194.912 66.1587 195.171 66.3205 195.395 66.5402C195.622 66.7599 195.8 67.0397 195.929 67.3796C196.059 67.7172 196.124 68.1195 196.124 68.5866V68.9716H191.757V68.1253H194.92C194.918 67.8848 194.866 67.6709 194.764 67.4836C194.662 67.294 194.52 67.1449 194.337 67.0362C194.157 66.9275 193.947 66.8732 193.706 66.8732C193.449 66.8732 193.224 66.9356 193.03 67.0605C192.836 67.183 192.684 67.3449 192.575 67.5461C192.469 67.7449 192.415 67.9634 192.412 68.2016V68.9404C192.412 69.2502 192.469 69.5162 192.582 69.7381C192.696 69.9578 192.854 70.1266 193.058 70.2445C193.261 70.3602 193.499 70.418 193.772 70.418C193.955 70.418 194.12 70.3925 194.268 70.3417C194.416 70.2885 194.544 70.211 194.653 70.1093C194.762 70.0075 194.844 69.8815 194.899 69.7312L196.072 69.863C195.998 70.1729 195.857 70.4434 195.648 70.6746C195.443 70.9036 195.179 71.0816 194.858 71.2088C194.536 71.3336 194.169 71.3961 193.755 71.3961Z" fill="#BB9345"/>
<path d="M199.163 71.3857C198.744 71.3857 198.37 71.2781 198.039 71.0631C197.708 70.8481 197.447 70.5359 197.255 70.1266C197.063 69.7173 196.967 69.2202 196.967 68.6352C196.967 68.0432 197.064 67.5438 197.259 67.1368C197.455 66.7275 197.72 66.4188 198.053 66.2107C198.386 66.0003 198.757 65.8951 199.166 65.8951C199.479 65.8951 199.735 65.9483 199.936 66.0546C200.138 66.1587 200.297 66.2847 200.415 66.4327C200.533 66.5784 200.624 66.716 200.689 66.8454H200.741V64.1886H202V71.292H200.765V70.4527H200.689C200.624 70.5821 200.531 70.7197 200.408 70.8654C200.286 71.0088 200.124 71.1313 199.922 71.2331C199.721 71.3348 199.468 71.3857 199.163 71.3857ZM199.513 70.3555C199.779 70.3555 200.006 70.2839 200.193 70.1405C200.38 69.9948 200.523 69.7925 200.62 69.5335C200.717 69.2745 200.765 68.9728 200.765 68.6282C200.765 68.2837 200.717 67.9843 200.62 67.7299C200.525 67.4755 200.384 67.2778 200.196 67.1368C200.012 66.9957 199.784 66.9252 199.513 66.9252C199.233 66.9252 199 66.9981 198.813 67.1437C198.625 67.2894 198.484 67.4906 198.389 67.7472C198.295 68.0039 198.247 68.2976 198.247 68.6282C198.247 68.9612 198.295 69.2583 198.389 69.5196C198.487 69.7786 198.629 69.9833 198.816 70.1336C199.006 70.2815 199.238 70.3555 199.513 70.3555Z" fill="#BB9345"/>
<path d="M188.834 37.7518L183.845 28.9395H181.707V37.7518H177.171V15.1377H185.659C187.409 15.1377 188.899 15.4509 190.13 16.0773C191.361 16.682 192.279 17.5136 192.884 18.5719C193.511 19.6087 193.824 20.775 193.824 22.071C193.824 23.5613 193.392 24.9112 192.528 26.1208C191.664 27.3087 190.379 28.1295 188.672 28.5831L194.083 37.7518H188.834ZM181.707 25.5376H185.497C186.728 25.5376 187.646 25.246 188.251 24.6629C188.856 24.0581 189.158 23.2265 189.158 22.1682C189.158 21.1314 188.856 20.3323 188.251 19.7707C187.646 19.1875 186.728 18.8959 185.497 18.8959H181.707V25.5376Z" fill="#276C1F"/>
<path d="M169.182 26.1532C170.457 26.3908 171.504 27.0279 172.325 28.0647C173.146 29.1014 173.556 30.2894 173.556 31.6285C173.556 32.8381 173.254 33.9072 172.649 34.836C172.066 35.7431 171.213 36.4559 170.089 36.9743C168.966 37.4927 167.638 37.7518 166.104 37.7518H156.353V15.1377H165.683C167.217 15.1377 168.534 15.3861 169.636 15.8829C170.759 16.3796 171.601 17.0708 172.163 17.9564C172.746 18.8419 173.038 19.8463 173.038 20.9694C173.038 22.287 172.681 23.3885 171.969 24.2741C171.277 25.1596 170.349 25.786 169.182 26.1532ZM160.888 24.4685H165.035C166.115 24.4685 166.947 24.2309 167.53 23.7557C168.113 23.2589 168.405 22.557 168.405 21.6498C168.405 20.7426 168.113 20.0407 167.53 19.5439C166.947 19.0471 166.115 18.7987 165.035 18.7987H160.888V24.4685ZM165.457 34.0584C166.558 34.0584 167.411 33.7992 168.016 33.2809C168.642 32.7625 168.956 32.0281 168.956 31.0778C168.956 30.1058 168.632 29.3498 167.984 28.8099C167.336 28.2483 166.461 27.9675 165.359 27.9675H160.888V34.0584H165.457Z" fill="#276C1F"/>
<path d="M151.87 37.7515H147.334L137.064 22.2326V37.7515H132.528V15.105H137.064L147.334 30.6563V15.105H151.87V37.7515Z" fill="#276C1F"/>
<path d="M124.694 37.7515H129.489L121.357 15.105H116.076L107.944 37.7515H112.706L118.7 20.3535L124.694 37.7515Z" fill="#276C1F"/>
<path fill-rule="evenodd" clip-rule="evenodd" d="M154.603 46.2502C156.465 46.642 162.471 51.1 163.503 51.9271C166.257 54.1226 168.883 56.4714 171.371 58.9623C172.018 58.7969 173.583 57.369 174.684 56.5592C172.787 53.8949 163.616 48.1309 160.32 46.5636C159.393 46.0401 158.436 45.572 157.453 45.1618C161.728 44.5523 163.162 44.9877 167.944 47.8436C177.193 53.3899 189.608 57.4212 198.639 49.585L201.48 46.7378C184.38 55.2532 173.758 40.5907 157.768 43.255C156.72 43.4286 155.697 43.7207 154.716 44.1257C153.733 43.7215 152.706 43.4295 151.656 43.255C135.631 40.6429 125.009 55.2706 107.944 46.7378L110.776 49.585C119.816 57.4212 132.222 53.4073 141.471 47.8436C146.236 44.9877 147.661 44.5523 151.962 45.1618C150.979 45.5702 150.021 46.0384 149.095 46.5636C145.79 48.1309 136.628 53.8949 134.731 56.5592C135.824 57.369 137.354 58.7969 138.044 58.9623C140.532 56.4714 143.159 54.1226 145.913 51.9271C146.752 51.1 152.741 46.642 154.603 46.2502Z" fill="#BB9345"/>
</svg>
